<svg id="Layer_1" data-name="Layer 1" xmlns="http://www.w3.org/2000/svg" viewBox="0 0 84 84"><defs><style>.cls-1{fill:#3a363d;}</style></defs><path id="rect3687" class="cls-1" d="M24.53.61a24,24,0,0,0-24,24V59.37a24,24,0,0,0,24,24H59.47a24,24,0,0,0,24-24V24.63a24,24,0,0,0-24-24Zm0,7.12H59.47a16.79,16.79,0,0,1,16.91,16.9V59.37a16.79,16.79,0,0,1-16.91,16.9H24.53A16.79,16.79,0,0,1,7.62,59.37V24.63A16.79,16.79,0,0,1,24.53,7.73Zm39.74,7.11a5,5,0,1,0,5,5A5,5,0,0,0,64.27,14.84ZM42,20.69A21.31,21.31,0,1,0,63.32,42,21.36,21.36,0,0,0,42,20.69Zm0,7.11A14.2,14.2,0,1,1,27.8,42,14.15,14.15,0,0,1,42,27.8Z"/></svg>