<svg id="Layer_1" data-name="Layer 1" xmlns="http://www.w3.org/2000/svg" viewBox="0 0 84 84"><defs><style>.cls-1{fill:#3a363d;}</style></defs><path id="path4157" class="cls-1" d="M6.93.59A6,6,0,0,0,.84,6.52v71a6,6,0,0,0,6.09,5.93H77.07a6,6,0,0,0,6.09-5.93v-71A6,6,0,0,0,77.07.59Zm12.73,13.9c4.25,0,6.86,2.79,6.94,6.46s-2.7,6.46-7,6.46H19.5c-4.18,0-6.87-2.87-6.87-6.46s2.78-6.46,7-6.46ZM56.32,31.65c8.18,0,14.29,5.34,14.29,16.83V69.92H58.19v-20c0-5-1.8-8.46-6.3-8.46A6.84,6.84,0,0,0,45.5,46a8.65,8.65,0,0,0-.39,3V69.92H32.66s.17-33.89,0-37.4H45.11V37.8a12.38,12.38,0,0,1,11.21-6.15ZM45.11,37.8l-.09.14h.09ZM13.36,32.52H25.79v37.4H13.36V32.52Z"/></svg>