<svg id="Layer_1" data-name="Layer 1" xmlns="http://www.w3.org/2000/svg" viewBox="0 0 84 84"><defs><style>.cls-1{fill:none;stroke:#3a363d;stroke-miterlimit:10;stroke-width:10px;}.cls-2{fill:#3a363d;}</style></defs><rect class="cls-1" x="5.59" y="5.1" width="73" height="73" rx="17.34"/><path id="path22" class="cls-2" d="M67.4,26.25a20.76,20.76,0,0,1-6,1.64A10.45,10.45,0,0,0,66,22.12a20.52,20.52,0,0,1-6.61,2.53,10.43,10.43,0,0,0-17.76,9.51A29.63,29.63,0,0,1,20.14,23.27a10.43,10.43,0,0,0,3.23,13.91,10.31,10.31,0,0,1-4.72-1.3V36A10.43,10.43,0,0,0,27,46.23a10.72,10.72,0,0,1-2.74.36,9.8,9.8,0,0,1-2-.19A10.43,10.43,0,0,0,32,53.64,20.86,20.86,0,0,1,19.09,58.1,22.8,22.8,0,0,1,16.6,58a29.58,29.58,0,0,0,16,4.68c19.16,0,29.64-15.88,29.64-29.65q0-.68,0-1.35a21,21,0,0,0,5.2-5.39"/></svg>