<?xml version="1.0" encoding="utf-8"?>
<!-- Generator: Adobe Illustrator 24.3.0, SVG Export Plug-In . SVG Version: 6.00 Build 0)  -->
<svg version="1.1" id="Layer_1" xmlns="http://www.w3.org/2000/svg" xmlns:xlink="http://www.w3.org/1999/xlink" x="0px" y="0px"
	 viewBox="0 0 717.7 717.7" style="enable-background:new 0 0 717.7 717.7;" xml:space="preserve">
<style type="text/css">
	.st0{fill:#FFFFFF;}
	.st1{fill:url(#SVGID_1_);}
	.st2{fill:url(#SVGID_2_);}
	.st3{fill:url(#SVGID_3_);}
	.st4{fill:#6F2CC6;}
	.st5{fill:url(#SVGID_4_);}
	.st6{fill:url(#SVGID_5_);}
	.st7{fill:url(#SVGID_6_);}
	.st8{fill:url(#SVGID_7_);}
	.st9{fill:url(#SVGID_8_);}
	.st10{fill:url(#SVGID_9_);}
	.st11{fill:url(#SVGID_10_);}
	.st12{fill:url(#SVGID_11_);}
	.st13{fill:url(#SVGID_12_);}
	.st14{fill:url(#SVGID_13_);}
	.st15{fill:url(#SVGID_14_);}
	.st16{fill:url(#SVGID_15_);}
	.st17{fill:none;stroke:#000000;stroke-width:8.72;stroke-miterlimit:10;}
	.st18{enable-background:new    ;}
</style>
<g>
	<circle class="st0" cx="358.9" cy="358.9" r="199.4"/>
	<path d="M556.3,305.6v88.1c-18,5.9-43.3,15.9-50,16.1c-0.6,0-49.4,7.1-49.7,6.7l9.5-34.3c-0.9-1.1-2.4-1.5-3.7-1
		c-4.2,1.5-12.9,2.2-16.5,3.1c-4.4,1.1-5.3,4.4-7,9s-4.2,10.8-4.8,12.8s-3.5,4.8-7.9,8.6s-7.5,3.7-14.8,2c-5.1-1.2-8.3-6.5-9.7-9.5
		c-0.6-1.2-1.9-2-3.3-1.8c-12,1.4-16.7-2.3-19.4-3.9c-2.3-1.3-8.5-7.1-11.1-9.6c-0.7-0.7-1.1-1.7-1-2.6c0.8-8.6,4.9-50.3,6-62
		c1-10.1,2.4-12,3-12.3c0.3-0.1,0.6-0.3,0.8-0.6l42.9-42.1c2.6-2.5,5.7-4.4,9-5.8c5.4-2.2,12-2.9,16.7-3.3
		c3.8-0.3,10.2-0.2,12.5-0.2c0.6,0,1.2-0.2,1.7-0.5c2.3-1.4,8.9-5.5,9.8-6.4c1.1-1.2,7.3-4.6,11-2.1c2.6,1.8,2.8,8.3,2.7,11.9v0.1
		c0,1.5,1,2.7,2.4,3.1l0.3,0.1c14.3,5,30.2,14.9,33.3,17.3C521.7,288.8,537.9,296,556.3,305.6z"/>
	<path d="M351.9,363.2c-0.3,3.6,0.7,10.1,0.3,14.1s-4.3,11.9-5.7,13.6c-2.8,3.5-6.6,6-10.9,7.3c-6.2,1.8-57.5,15.8-57.5,15.8
		s-8.4-2.2-31.1-6.7s-31.1-8.4-41-11.2c-14.5-4.1-24.3,2.9-29,5.4c-2.5,1.3-9.1,3.9-13.8,5.6c-6.5-26.5-7.5-53.9-3.1-80.8
		c5.3-3.4,12.6-8.1,22.8-15c40.4-26.9,52.9-39,52.9-39s12.9-12.6,15.2-13.4s11.1-3.7,16.4-0.8c4.4,2.5,3.4,2.4,3,2.3
		c2.7,0.8,5.2,2.2,7.3,4c3.3,2.9,16.2,13,25.1,16.1s32.5,20.1,36.5,24.5s11,4.3,12.9,11.8s1.4,9.5-4.7,18.5c-0.9,1.3-2,2.8-3.2,4.4
		c-7.4,9.9-20,24.8-20,24.8s-6.9,13.1-33.3,4.8s-32.6-14.2-25-20s32.1-6.9,32.1-6.9s0.7-6.4,3.8-7s-7,0.2-14.1-8.3
		c0,0-2.6-3.4-3.1-6.1c0.1,1.7,0.2,8.4-7.1,10.1c-9.4,2.1-14.2-0.5-14.2-0.5s-8.9,25.7,1.7,31.5c7.4,4,15.4,6.9,23.6,8.5
		c4.1,1,25.8,7,34.3-2.4c5.8-6.5,15.6-20.2,21.7-28.3c2.8-3.7,4.7-6.2,5.2-6.3c1.5-0.4,6.4-2.6,7.9,2.3s-0.5,17.4-1.1,18.6
		S352.3,359.5,351.9,363.2z"/>
	<path d="M296.9,240.5c0.2,0.8,0.3,1.1,0.5,1.9c-0.9,0.5-1.7,1.1-2.3,1.8c-0.6,0.8-0.7,1.3-0.3,1.6c0.4,0.3,0.7,0.1,1.4-0.2
		c1-0.4,1.4-0.6,2.4-1c1.5-0.6,2.6-0.7,3.5,0.1c1.4,1.2,1,3-0.6,5.1c-0.9,1.2-2,2.1-3.3,2.9c-0.3-0.7-0.4-1.1-0.7-1.8
		c1-0.6,2-1.3,2.8-2.2c0.7-0.9,0.8-1.6,0.4-2s-1-0.2-1.8,0.2s-1.3,0.6-2.2,1c-1.4,0.7-2.5,0.8-3.3,0.2c-1.2-0.9-1.2-2.7,0.5-4.8
		C294.6,242.2,295.7,241.2,296.9,240.5z"/>
	<path d="M313.8,225.3l5.3,8.3c-0.7,0.5-1.1,0.7-1.8,1.2l-2.4-3.5c-1.9,1.3-2.9,2-4.7,3.5l2.7,3.4c-0.7,0.5-1,0.8-1.6,1.4l-6.4-7.5
		c0.7-0.6,1.1-0.9,1.9-1.5l2.4,3c1.9-1.5,2.8-2.2,4.8-3.6c-0.9-1.3-1.3-1.9-2.1-3.1C312.6,226.1,313,225.8,313.8,225.3z"/>
	<path d="M333.8,223.9c-1.8,0.6-2.7,1-4.5,1.7c0,1,0,1.5,0,2.4c-0.8,0.4-1.3,0.6-2.1,1c-0.1-3.6,0.1-7.3,0.5-10.9
		c0.9-0.4,1.3-0.5,2.2-0.8c2.7,2.4,5.3,5,7.7,7.8c-0.9,0.3-1.3,0.4-2.2,0.7C334.8,225,334.4,224.6,333.8,223.9z M332.6,222.6
		c-1.2-1.2-1.8-1.8-3-3c-0.1,1.7-0.2,2.5-0.2,4.2C330.6,223.4,331.3,223.1,332.6,222.6L332.6,222.6z"/>
	<path d="M355.8,222l-1.9,0.1c-2-2.2-4.1-4.2-6.3-6.1l0,0c0.4,2.7,0.6,4,0.9,6.7c-0.8,0.1-1.2,0.2-2,0.3c-0.7-3.9-1-5.8-1.6-9.7
		c0.9-0.1,1.3-0.2,2.1-0.3c2.3,1.9,4.5,3.9,6.6,6.1l0,0l-0.5-6.7c0.9-0.1,1.4-0.1,2.3-0.1C355.5,216.2,355.6,218.1,355.8,222z"/>
	<path d="M377.8,219.3c-0.7,2.7-3,4.5-6.7,3.9c-3.4-0.6-5.7-2.7-5.4-5.8s3.1-4.9,7.2-4.2c1.7,0.3,3.3,1,4.5,2.3
		c-0.7,0.5-1.1,0.7-1.8,1.2c-0.8-0.9-1.9-1.4-3.1-1.6c-2.5-0.4-4.2,0.8-4.5,2.7s1.1,3.4,3.4,3.8c2.2,0.4,3.4-0.6,3.8-1.6
		c-1.3-0.3-2-0.4-3.3-0.6l0.3-1.6c2.3,0.4,3.4,0.6,5.7,1.2C377.9,219,377.9,219.2,377.8,219.3z"/>
	<path d="M398.9,222.5l-4.8,8.6c-0.7-0.4-1.1-0.6-1.8-1c0.8-1.5,1.2-2.3,2-3.8c-2-1-3.1-1.5-5.1-2.4c-0.7,1.6-1,2.4-1.7,4
		c-0.8-0.3-1.1-0.5-1.9-0.8l3.6-9.1c0.9,0.3,1.3,0.5,2.2,0.9c-0.6,1.4-0.9,2.1-1.5,3.5c2.1,0.9,3.2,1.4,5.3,2.5l1.7-3.4
		C397.6,221.8,398.1,222,398.9,222.5z"/>
	<path d="M409.9,239.8c-1.5-1.4-2.2-2-3.8-3.3c-0.9,0.4-1.3,0.7-2.2,1.1c-0.7-0.6-1.1-0.9-1.9-1.4c3.2-1.8,6.6-3.3,10-4.6
		c0.8,0.6,1.1,0.9,1.9,1.6c-0.8,3.6-1.9,7.1-3.1,10.6c-0.7-0.7-1-1-1.7-1.7C409.4,241.1,409.5,240.6,409.9,239.8z M410.4,238
		c0.5-1.6,0.7-2.4,1.2-4.1c-1.6,0.7-2.4,1-3.9,1.8C408.8,236.5,409.3,237,410.4,238L410.4,238z"/>
	<path d="M418.5,253.1c-0.5-0.8-0.8-1.1-1.3-1.9l7.8-5.9c0.6,0.8,0.9,1.3,1.5,2.1L418.5,253.1z"/>
	<path d="M385.5,255.9c0.9-0.9,1.7-1.9,2.4-2.9c0.3-0.5,0.5-1.1,0.6-1.8c0-0.2,0-0.4,0-0.5c-0.1-0.7-0.7-1-1.6-0.7
		c-0.5,0.2-0.8,0.6-1.3,0.7c-1.3,0.3-2.5,0.7-3.6,1.3c-1.5,0.8-3.1,1.5-4.6,2.2c-0.2,0.1-0.5,0.2-0.6,0.2s-0.1-0.4-0.1-0.6
		c0-0.2,0-0.4-0.1-0.5c-0.2-0.5-0.3-1-0.4-1.6c0-1.3-0.4-2.6-1.4-3.6c-1-0.9-1.7-2.1-2.7-3c-1-0.9-2-1.8-2.8-2.8
		c-0.8-1-1.6-1.9-2.3-2.9c-0.3-0.4-0.6-0.9-0.9-1.3c-0.3-0.2-0.5-0.4-0.7-0.7c-0.5-0.5-0.8-1.1-1.1-1.7c-0.1-0.2-0.2-0.5-0.3-0.8
		c-0.2-0.5-0.3-0.9-0.9-1c-0.4-0.1-0.9-0.1-1.3,0c-0.4,0.1-0.7,0.2-1,0.4c-0.1,0-0.1,0.1-0.1,0.3c-0.3,0.9-0.6,1.8-0.7,2.8
		c-0.1,0.5-0.2,1-0.3,1.4c-0.2,0.7-0.4,1.3-0.7,1.9c0,0.2-0.1,0.3-0.2,0.5c-0.2,0.5-0.5,1-0.7,1.5c-0.4,1.2-1,2.4-1.7,3.5
		c-0.8,1-1.1,1.1-2,0l0,0c-0.7-0.7-1.5-1.3-2.5-1.7c-0.5-0.2-1.3-0.3-1.6-1.1c-0.2-0.4-1.2-0.3-1.2,0c-0.2,0.5-0.4,1-0.4,1.6
		c0,0.3,0,0.6,0,0.9c0.1,0.3,0.1,0.6,0.1,1c0.1,0.1,0.1,0.2,0.1,0.3c-0.1,0.7,0,1.4,0,2.1c-0.1,0.5-0.2,1.1-0.4,1.6l0,0
		c-0.1,0.3-0.2,0.6-0.1,0.8c0,0.5-0.1,1-0.3,1.5c0,0.2-0.2,0.4-0.4,0.4c-0.3,0-0.2-0.3-0.2-0.4c-0.1-0.5-0.2-1.1-0.3-1.6
		c0-0.1,0-0.3,0-0.4c0-0.1-0.1-0.1-0.1-0.2c0-0.1,0-0.3,0-0.4v-0.1c0-0.2,0-0.4,0-0.6s0-0.5,0-0.8c-0.1-0.1-0.2-0.2-0.4-0.3
		c-0.3-0.2-0.6,0.1-0.8,0.3s-0.7,0.4-0.9,0c-0.5-0.9-1.4-1.1-2.1-1.4c-1.6-0.6-3.1-1.3-4.6-2.1c-0.7-0.4-1.6-0.5-2.3-0.2
		c-0.6,0.1-1.1,1.2-1,2.1c0.2,1.1,0.2,2.1,0.2,3.2c0,0.8-0.1,1.7-0.2,2.5c0.2,1.3,0,2.6,0.1,3.9c0,0.3,0.1,0.5,0.1,0.8
		c0.3,1.6,0.8,3.2,1.5,4.6c0.3,0.5,0.7,0.9,1,1.3c0.6,0.8,1.1,1.7,1.7,2.5c0.3,0.3,0.4,0.6,0.8,0.8c0.1,0,0.4,0.1,0.3,0.3
		s-0.2,0.2-0.4,0.2c-1,0.2-2,0.5-2.9,1c-1.5,0.9-2.8,2.1-4,3.4c-1.1,0.9-2.1,1.9-2.9,3c-0.4,0.5-0.8,1-1.3,1.5
		c-0.7,0.9-1.1,2-1.8,2.8c-0.3,0.3-0.5,0.7-0.5,1.1c0,0.2,0,0.5,0.1,0.7c0.1,0.7,0.4,1.3,0.5,1.9c0.1,0.3,0.4,0.6,0.7,0.7
		c1.2,0.6,2.5,1.2,3.9,1.5c0.8,0.1,1.5,0.4,2.2,0.8c1.5,0.9,3.2,1.5,4.9,1.8c0.6,0.1,1.1,0.2,1.6,0.3c0.9,0.4,1.8,0.7,2.7,0.8
		c1.4,0.1,2.9-0.1,4.3,0.1c0.8,0,1.5,0.6,1.7,1.4c0.2,1,0.3,2.1,0.2,3.2c-0.2,0.7,0.1,1.4,0.6,1.8c0.6,0.5,1.5,0.6,2.3,0.2
		c1.2-0.8,2.5-1.4,3.9-1.6c1.1-0.1,2.2-0.4,3.3-0.5c0.5,0,1-0.3,1.5-0.3c1.2-0.1,2.2-0.6,3-1.4c0.3-0.3,0.7-0.4,1.1-0.3l0.3,0.1
		c1.3,0.1,2.6,0.3,3.9,0.4c1.4,0,2.8-0.1,4.2-0.2c2-0.1,4-0.4,6-1c1-0.4,1.9-0.9,2.9-1.2c1.9-0.5,3.8-0.9,5.7-1
		c1-0.2,1.9-0.4,2.9-0.4c2.2,0.3,3.9-2.8,3.2-4.6c-0.7-1.6-1.6-3.1-2.5-4.5c-1.3-2.1-3.4-3.6-5.8-4.3c-1-0.3-2-0.4-3-0.5
		c-0.3,0-0.5,0-0.2-0.4c1-1.2,1.8-2.7,2.1-4.2c0.2-1.1,0.5-2.3,0.6-3.4c0.1-1,0-2.1-0.3-3.1c-0.2-1.2-0.4-2.5-0.7-3.7
		c-0.2-0.5-0.2-1,0-1.5C384.7,257.1,385,256.5,385.5,255.9z M379.9,254.3c0.6-0.3,1.2-0.6,1.7-1c1-0.6,2.1-1,3.1-1.5
		c0.4-0.2,0.8,0,1.2-0.3l0.1,0.2c-0.2,0.2-0.5,0.4-0.7,0.6c-0.9,0.6-1.7,1.4-2.6,2c-1,0.8-1.9,1.8-2.4,3c-0.5,1-0.9,2-1.4,3
		c-0.3,0.8-0.6,1.6-0.8,2.4c-0.4,1.5-1.1,2.8-2.2,3.9c-0.7,0.7-1.7,1.2-2.7,1.3c-0.5,0.1-0.9,0.2-1.3,0.5c-1.1,0.4-2.1,0.7-3.2,1.1
		c-0.5,0.2-1,0.5-1.4,0.9c-0.3,0.3-0.7,0.3-1,0.1c-0.4-0.2-0.1-0.5,0-0.7c0.3-1.5,0.9-2.9,1.8-4.1c0.9-1.3,1.7-2.7,2.4-4.1
		c0.9-1.5,2.1-2.9,3.6-3.9C375.9,256.1,377.9,255.3,379.9,254.3z M344.6,254.7c0.1,0.3,0.1,0.6-0.1,0.9c-0.1,0.1-0.1,0.3,0,0.4
		c0.4,0.3,0.1,0.7,0.2,1c0.2,1.8,0.7,3.6,1.4,5.3c0.4,1,0.8,1.9,1.3,2.8c0.4,1.1,1,2.1,1.8,2.9c-0.3,0.1-0.6,0.1-0.9,0
		c-1-0.3-2.1-0.2-3.1,0.2c-0.7,0.3-1.1,1.2-0.8,1.9c0,0,0,0.1,0,0.1c0.7,1.4,1.9,2.5,2.8,3.7c0.7,1,1.4,1.9,2.1,2.9
		c-0.3,0.1-0.6,0.1-0.9,0c-1.2-0.7-2.5-1.1-3.4-2.2c-1.5-1.5-2.5-3.5-2.8-5.5c-0.2-1.7-0.3-3.3-0.1-5c0-1.7,0.3-3.4,1-5
		c0.4-0.8,0.4-1.8,0.7-2.7c0.2-0.7,0.4-1.4,0.8-2c0.3-0.3,0.6-0.6,0.8-1c0,0.4,0.1,0.8-0.4,0.9C344.6,254.3,344.6,254.5,344.6,254.7
		z M348.4,273.9l-0.1-0.2c0,0,0-0.1-0.1-0.1c-0.1-0.1-0.2-0.3-0.3-0.5c0,0-0.1-0.1-0.1-0.2l0,0l0,0c0,0-0.1-0.1-0.1-0.2
		c0,0,0-0.1,0-0.1l0,0l-0.3-0.5l0,0c0,0,0,0,0,0l0,0l0,0l0,0c0,0-0.1-0.1-0.1-0.1c0,0-0.1-0.1-0.1-0.1l0,0l0,0c0,0,0,0,0,0
		c-0.1-0.2-0.3-0.4-0.4-0.6l-0.3-0.3c-0.3-0.2-0.6-0.5-0.8-0.8c0,0-0.1-0.1-0.1-0.1c0,0,0-0.1,0-0.1v-0.1c0-0.1-0.1-0.2-0.1-0.3
		c0-0.3,0.3-0.6,0.6-0.7c0.6-0.1,1.3-0.1,1.9,0.1c0.8,0.1,1.5,0.3,2.2,0.7c1.6,0.7,3,1.7,4.7,2.2c0.8,0.2,1.5-0.2,2.3-0.3
		c0.1,0,0.2,0,0.4-0.1c1.2-0.3,2.4-0.4,3.6-0.3l0,0c0.4,0,0.8,0,1.2,0.1c0.9-0.1,1.8,0.1,2.7,0.3c0.2,0,0.5,0.1,0.7,0.2
		c0.5,0.1,1.1,0.2,1.6,0.4c0.7,0.3,1.3,0.6,1.9,1c0.3,0.2,0.4,0.7,0.2,1c0,0.1-0.1,0.1-0.1,0.1c-1.5,1.1-3.2,1.9-4.8,2.9
		c-0.2,0.1-0.3,0.2-0.4,0.4c-0.1,0.1-0.2,0.2-0.3,0.3l-0.1,0.1v0l0,0c-0.1,0.1-0.2,0.1-0.3,0.2c-1,1-2.2,1.8-3.5,2.5
		c-0.4,0.2-0.8,0.3-1.2,0.3c-1,0.1-2,0.4-3.1,0.4c-1.1,0-2.1-0.4-2.8-1.3c-0.3-0.4-0.6-0.8-0.9-1.3l0,0c-0.1-0.1-0.2-0.2-0.3-0.3
		c-0.1-0.2-0.2-0.3-0.3-0.5s-0.2-0.2-0.3-0.3c-0.4-0.7-0.7-1.5-1.1-2.2v-0.1l0,0l-0.1-0.1c0,0-0.1-0.1-0.1-0.1c0,0,0,0,0-0.1l0,0
		c0,0-0.1-0.1-0.1-0.1c0,0-0.1,0-0.1-0.1l0,0c0,0-0.1-0.1-0.1-0.1l0-0.1C349.1,274.6,348.7,274.3,348.4,273.9z M359.8,269.5
		c0.2,0.2,0.4,0.2,0.6,0l0.5-0.3c0.2-0.1,0.4-0.1,0.5,0.1c0,0,0,0,0,0c0.1,0.1,0.1,0.3,0.1,0.4c-0.1,0.2-0.3,0.1-0.4,0.1
		c-0.4-0.1-0.7-0.1-1.1,0c-0.8,0.2-1.1-0.2-1.1-0.9c-0.1-0.7-0.1-1.3,0-2c0.4,0.6,0.9,1,0.4,1.8C359.1,269,359.6,269.2,359.8,269.5z
		 M363.3,269.6c0.1,0.1,0.1,0.3,0,0.4c0,0-0.1,0.1-0.1,0.1c-0.2,0.1-0.5,0-0.6-0.2c0,0,0,0,0,0c-0.5-0.9-0.8-1.9-0.8-2.9
		c0-0.5,0.1-0.9-0.6-1.2c-0.3-0.1-0.2-0.8-0.6-1.1c-0.1-0.1,0-0.3-0.3-0.3c-0.6-0.1-0.6-0.1-0.3-0.8c1.1,1.2,2,2.7,2.5,4.2
		C362.9,268.4,362.9,269.1,363.3,269.6z M360.7,267.3c0.1,0.2,0.3-0.1,0.4-0.3s0.2-0.3,0.3-0.2c0.1,0.1,0.2,0.2,0.3,0.3
		c0.1,0.2,0,0.4-0.2,0.4c-0.5,0-0.4,0.4-0.5,0.6s-0.1,0.3-0.3,0.3s-0.1-0.2-0.2-0.2c0-0.6-0.2-0.9-0.7-1.1c-0.4-0.5-0.5-1.1-0.5-1.7
		c0.1,0,0.1,0,0.2,0c0.2,0.1,0.3,0.3,0.2,0.5C359.7,266.5,360.5,266.8,360.7,267.3z M359.8,263.6c-0.1,0.2-0.1,0.4-0.1,0.7
		c0.1,0.3,0,0.5-0.4,0.4c-0.4,0.1-0.6,0-0.4-0.4c0.1-0.3,0.1-0.6,0.2-0.8s0.2-0.4,0.4-0.3S359.9,263.4,359.8,263.6L359.8,263.6z
		 M373.2,248.3c0.2-0.1,0.4,0.1,0.5,0.2c1.1,1.5,1.9,3.1,1.6,5c0,0.5,0,1,0.2,1.5c0.1,0.3-0.2,0.4-0.4,0.4s-0.2-0.2-0.2-0.3
		c0-0.4,0-0.6,0-0.9c0.3-2.1-0.6-3.8-1.6-5.6C373.2,248.6,373,248.4,373.2,248.3L373.2,248.3z M361.8,235.8
		c-0.1-0.5,0.1-0.6,0.6-0.6c0.4,0,0.7,0.2,0.9,0.6c0.8,1.5,1.7,3,2.7,4.4c0.6,0.9,1.4,1.7,2,2.6c0.5,0.6,1,1.2,1.6,1.7
		c1.6,1.7,2.8,3.6,3.8,5.6c0.3,0.7,1,1.3,1.1,2.1c0,0.2,0.1,0.3,0.1,0.5s0.1,0.4-0.1,0.4s-0.2-0.1-0.3-0.2c-1-1.7-2.1-3.3-3.4-4.7
		c-0.8-1-1.8-1.9-2.9-2.6c-0.3-0.3-0.6-0.7-0.9-1c-1.1-1.1-2.3-2.2-3.3-3.4c-0.8-0.9-1.4-2.1-1.6-3.4
		C362,237.1,361.9,236.5,361.8,235.8z M362.1,240.9c0.6,0.9,1.2,1.7,1.9,2.5c1.3,1.3,2.7,2.5,4,3.9c1,1,2,2.1,2.8,3.3
		c0.8,0.8,1.6,1.7,2.2,2.6c0.3,0.4,0.6,0.8,0.8,1.3l0.2,0.3l0,0l0,0c0,0.1,0.1,0.1,0.1,0.1c0.1,0.1,0.1,0.2,0.2,0.3
		c0,0.1,0,0.1,0,0.2l0,0c0,0.1,0,0.1,0,0.2c-0.1,0.3-0.3,0.5-0.4,0.8c0,0-0.1,0.1-0.2,0.1s0,0-0.1,0s0,0,0,0s-0.1,0.1-0.2,0.1l0,0
		c0,0,0,0-0.1,0s-0.1,0.1-0.1,0.1c-0.2,0.2-0.4,0.3-0.6,0.5c0,0-0.1,0.1-0.1,0.1l-0.8,0.5l0,0l0,0c-1.4,1.5-2.6,3.1-3.6,4.9
		c-1,1.6-1.7,3.3-2.6,5c-0.2,0.5-0.4,1-0.6,1.5c-0.2-0.2-0.4-0.6-0.4-0.9c-0.3-2.1-1.5-3.6-2.7-5.2c-0.6-0.7-1.3-1.3-2-1.7
		c-0.8-0.5-1.3-0.3-1.5,0.6c-0.3,1.4-0.6,2.8-0.8,4.2c-0.2,1.1-0.1,2.3,0.1,3.4c0,0.2,0.1,0.3-0.1,0.4s-0.3-0.1-0.3-0.3
		c-0.3-0.7-0.5-1.4-0.6-2.1c-0.1-1.6-0.9-3-2-4.1c-1.3-1.2-0.9-2.5-0.8-3.8c0-0.8,0.2-1.7,0.4-2.5c0.6-1.9,1.6-3.7,2.9-5.2
		c1.1-1.5,2-3.1,2.8-4.7c0.9-1.6,1.5-3.3,2-5.1C361.9,241.9,362,241.5,362.1,240.9z M357.6,246.5c0.9-1.4,1.7-2.9,2.3-4.5
		c0.5-1.1,0.8-2.2,0.9-3.4c0-0.1,0.1-0.1,0.2-0.2c0.2,0.3,0.2,0.7,0.1,1c-0.2,1.1-0.5,2.1-0.6,3.1c-0.2,1.3-0.6,2.6-1.2,3.8
		c-0.6,1.3-1.2,2.5-2,3.6c-0.6,0.8-1.1,1.6-1.6,2.5c-0.3,0.4-0.6,0.8-0.9,1.2c-0.5,0.8-0.8,1.6-1.4,2.4c-0.1,0.1-0.2,0.3-0.4,0.4
		c0-1.2,0.3-2.5,0.8-3.6C354.8,250.5,356.1,248.4,357.6,246.5z M351,249.5c0-1.3-0.2-2.5-0.2-3.8c0-0.5,0-0.5,0.5-0.3
		c1.2,0.5,2.2,1.4,2.7,2.5c0.1,0.2,0.3,0.3,0.5,0.4c0.4,0.1,0.4,0.3,0.2,0.6c-0.8,0.9-1.4,1.9-2,3c-0.1,0.2-0.2,0.4-0.3,0.6
		C351.4,251.7,350.9,250.6,351,249.5L351,249.5z M349.1,253.8c0.3-0.4,0.4-0.8,0.6-1.2s0-0.9,0.2-1.2c0.2,0,0.3,0.1,0.4,0.2
		c0.4,0.8,0.8,1.5,1.2,2.2c0.3,0.5,0.4,1,0.3,1.5c-0.1,1.7,0,3.5,0.2,5.2c0.1,0.2,0,0.5-0.2,0.7c-1.2-1.3-2.1-2.8-2.8-4.5
		c0.4,0.1,0.8,0.1,0.8,0.6c0,0.1,0.1,0.2,0.3,0.1c0.1,0,0.1-0.1,0.1-0.2c0,0,0,0,0,0c-0.1-0.3-0.3-0.5-0.5-0.7
		C348.4,255.5,348.4,255,349.1,253.8L349.1,253.8z M346.3,253.3c0-0.1,0-0.2,0.2-0.3c1,2.6,1.8,5.2,3.4,7.5c0.7,0.9,1.5,1.8,2.1,2.7
		c0.6,0.7,1.4,1.3,1.9,2c0.7,0.8,1.2,1.8,1.4,2.9c0.1,0.5,0.4,1,0.3,1.5c0,0.2,0.2,0.6-0.1,0.6s-0.8,0.2-1.1,0h-0.1
		c-0.9-0.2-1.8-0.7-2.5-1.3c-0.5-0.5-1-1-1.5-1.5c-0.1-0.1-0.2-0.2-0.3-0.3c-0.1-0.1-0.1-0.2-0.2-0.2l0,0c-1.3-1.7-2.2-3.6-2.6-5.6
		c-0.1-0.2-0.1-0.5-0.2-0.7c-0.5-1.5-0.7-3.1-0.8-4.6C346.1,255,346.1,254.1,346.3,253.3L346.3,253.3z M337.8,252.6
		c-0.1-1.8,0.1-3.7-0.4-5.5c-0.1-0.3,0.1-0.5,0.4-0.3c1.8,1,3.9,1.2,5.6,2.3c0.5,0.3,0.9,0.9,1.5,1.2c0.1,0,0,0.3,0,0.4
		c-0.6,1.4-1.2,2.8-1.8,4.1c0,0.1-0.1,0.1-0.1,0.2c-0.1,0.4-0.3,0.8-0.5,1.2c0,0.6-0.2,1.3-0.6,1.8c-0.2,0.2-0.2,0.5-0.2,0.7
		c-0.1,0.7-0.4,0.8-0.9,0.4c-0.3-0.2-0.7-0.5-0.9-0.9C338.6,256.6,338,254.6,337.8,252.6L337.8,252.6z M339.5,262.4
		c-0.7-0.5-1.2-1.1-1.6-1.9c0,0,0-0.1,0-0.1c-1,0.2-0.7-0.7-1-1.1c-0.8-1.1-1.1-2.4-1-3.8c0.1-2,0.1-4,0.1-6c0-0.4,0.1-1.3,0.3-1.2
		c0.5,0.1,0.1,0.7,0.2,1.1c0.2,1.6-0.3,3.3,0.2,4.8c0.2,0.9,0.4,1.8,0.8,2.6c0.3,0.7,0.7,1.4,1.1,2c0.5,0.6,1.1,1,1.3,1.8
		c0,0.1,0.1,0.1,0.2,0.1c0.9,0,0.9,0.5,0.8,1.2c-0.2,0.9-0.1,1.8-0.2,2.6c0,0.1-0.1,0.2-0.1,0.3c-0.4-0.3-0.5-0.7-0.4-1.2
		C340.4,262.9,339.9,262.6,339.5,262.4L339.5,262.4z M340.4,268c0.1,0,0.2,0,0.2,0.1c0,0.1,0,0.2-0.1,0.2c0,0-0.1,0-0.1,0
		c-0.4-0.1-0.8,0.1-1.3,0.1C339.5,268.1,339.9,268,340.4,268L340.4,268z M333.4,283.7c-1.9-0.1-3.7-1-4.9-2.5
		c-0.4-0.5-0.4-1.2,0-1.7c1-1.4,2-2.8,3.2-4c0.3-0.3,0.5-0.7,0.8-1c1-1.2,1.7-2.6,3.1-3.4c1.3-0.8,2.6-1.5,4-2.2
		c0.9-0.4,1.1-0.2,1.4,0.7c0.3,1.2,0.8,2.4,1.5,3.4c0.2,0.3,0.4,0.6,0.5,0.9c0.5,0.9,1.2,1.7,2,2.3c0.8,0.7,1.7,1.3,2.7,1.7
		c0.9,0.4,1.8,0.6,2.6,1c0.7,0.3,1.1,1,1,1.8c-0.1,1-0.8,2-1.7,2.5c-1,0.4-2,0.8-3,1.1c-1.7,0.2-3.4,0.2-5.1,0
		C338.7,284.1,336.1,283.9,333.4,283.7L333.4,283.7z M351.3,292.3c0,0.2,0,0.6-0.3,0.6s-0.2-0.4-0.3-0.6c0.2-0.7-0.3-1.4-0.3-2.2
		c0-0.5-0.3-1-0.6-1.4c-0.1-0.1-0.3-0.4-0.1-0.5c0.3-0.2,0.6-0.4,1-0.4c0.2,0,0.3,0.3,0.3,0.4c0,0.9,0.2,1.8,0.6,2.6
		C351.5,291.3,351.5,291.8,351.3,292.3L351.3,292.3z M348.6,287.3c-0.8,0.2-1.7,0.3-2.6,0.3c-1.4,0-2.8-0.2-4.1-0.6
		c-1-0.3-2-0.5-3-0.7c-1.1-0.2-2.2-0.6-3.2-1.1c0.9-0.2,1.9-0.1,2.8,0.1c2,0.3,4.1,0.5,6.1,0.5c1.1,0,2.1-0.2,3.1-0.6
		c0.4-0.2,0.9-0.2,1.3-0.3c1-0.3,1.9-0.9,2.5-1.7c0.4-0.5,1.1-0.6,1.6-1.1c0.1-0.1,0.5,0,0.6,0.2s0.1,0.4,0,0.5
		c-0.7,1.3-1.7,2.5-3,3.2C350,286.6,349.3,287,348.6,287.3L348.6,287.3z M352.3,290.1c0-0.2-0.1-0.4-0.1-0.7c-0.2-0.7,0-1.5-0.3-2.2
		c-0.1-0.3,0.1-0.4,0.3-0.6c1-0.8,1.8-1.8,2.4-3c0.4-0.7,0.8-0.8,1.1-0.1s0.7,1.2,1,1.8c0.4,0.8,1,1.5,1.7,2c0.4,0.3,0.7,0.7,1,1.2
		c0.2,0.3,0.1,0.5-0.2,0.5c-0.1,0-0.1,0-0.2,0c-1.8-0.3-3.2,0.7-4.7,1.4c-0.2,0.1-0.4,0.2-0.7,0.3
		C352.6,291.2,352.5,291.1,352.3,290.1L352.3,290.1z M359,291.8c-1.5,0.1-3,0.4-4.4,0.8c-0.3,0.1-0.5,0.3-0.8,0.4
		c0.1-0.4,0.4-0.5,0.7-0.7c0.7-0.5,1.4-1,2.2-1.4c1-0.5,2.1-0.2,3.1-0.4c0.4,0,0.8-0.2,1.1-0.4c0.3-0.4,0.5-0.3,0.7,0.1
		s1,0.3,1.6,0.5C361.9,291.3,360.4,291.7,359,291.8L359,291.8z M390.8,286.2c-0.8,0.2-1.5,0.3-2.3,0.4c-0.8,0.2-1.7,0.4-2.6,0.5
		c-1,0.2-2.1,0.4-3.1,0.8c-1.8,0.4-3.4,1.4-5.1,1.9c-1.5,0.4-3,0.6-4.5,0.7c-1.8,0.1-3.7,0.1-5.5-0.2c-1.9,0-3.8-0.6-5.5-1.5
		c-0.9-0.4-1.8-1-2.5-1.8c-0.7-0.8-1-1.8-1-2.8c-0.2,0.2-0.3,0.5-0.5,0c0-0.1-0.1-0.3-0.1-0.4c-0.8-1.4-0.5-1.6,1.2-1.7
		c0.1,0,0.3,0,0.4,0.1c2,2.1,4.6,3.2,7.2,4.4c2.3,0.9,4.8,1.3,7.3,1.2c1.2,0.2,2.4,0.3,3.6,0.2c1-0.1,2-0.4,3-0.8
		c1.4-0.6,2.8-1.5,4.3-1.4c1,0.1,1.8-0.4,2.7-0.4s1.9,0.2,2.9,0.2c0.2,0,0.5,0,0.5,0.2S390.9,286.1,390.8,286.2L390.8,286.2z
		 M383.4,275.4c1.1,0,2.2,0.2,3.2,0.6c0.9,0.4,1.6,1,2.2,1.8c1,1,1.8,2,2.6,3.2c0.5,0.9,1,1.9,1.4,2.8c0.2,0.5-0.3,0.4-0.5,0.5
		c-0.7,0.1-1.4,0-2-0.2c-1.2-0.2-2.4-0.2-3.7,0c-1.9,0.2-3.8,0.6-5.6,1.1c-0.9,0.3-1.8,0.6-2.7,0.8c-1.6,0.2-3.1,0.1-4.7,0.2
		c-2.4,0-4.8-0.5-7.1-1.5c-1.7-0.5-3.3-1.3-4.7-2.3c-0.2-0.2-0.4-0.3-0.6-0.5c-0.3-0.4-0.3-0.8,0.2-1c0.4-0.2,0.7-0.4,1-0.7
		c0.5-0.4,1.1-0.5,1.7-0.3c2.3,0.5,4.5-0.1,6.6-0.8c2-0.7,3.9-1.8,5.5-3.1c0.9-0.5,1.9-0.8,2.9-0.9
		C380.7,275.1,382,275.2,383.4,275.4L383.4,275.4z M383.7,260.6c0.2,1.5,0.3,2.9,0.4,4.4c0.3,2.5-0.9,4.6-1.8,6.8
		c-0.4,0.7-0.9,1.4-1.5,2c-0.2,0.3-0.5,0.2-0.8,0.2c-0.5,0-1.1,0-1.7,0c0.8-1.5,1.3-3,2-4.4c1.3-2.7,1.7-5.7,2.7-8.5
		c0.1-0.1,0.1-0.3,0.1-0.5s0.1-0.4,0.3-0.4S383.6,260.4,383.7,260.6L383.7,260.6z M382.5,259c-0.1,0.6-0.7,1-0.7,1.7
		c-0.1,0.9-0.3,1.8-0.6,2.7c-0.4,1.3-0.9,2.6-1.4,3.8c-0.2,0.8-0.5,1.6-0.8,2.3c-0.4,0.9-0.8,1.9-1.2,2.9c-0.3,0.6-0.8,1.2-1.3,1.7
		c-1.4,1.7-3.3,3.1-5.4,3.9c-1.7,0.7-3.6,1-5.5,0.9c-0.3,0-0.6,0-0.8,0c-0.2,0-0.4,0-0.4-0.2s0.1-0.2,0.2-0.4
		c0.7-0.8,1.6-1.5,2.6-1.9c0.7-0.3,1.5-0.7,2.1-1.1c0.7-0.3,1.1-1,1.1-1.7c0.1-0.8-0.4-1.6-1.1-2c-0.4-0.2-1-0.3-1-0.7
		s0.7-0.7,1.2-0.9c0.2-0.1,0.5-0.1,0.8-0.1c1.3-0.5,2.7-0.6,4-1.2c2.5-1.2,3.8-3.3,4.7-5.8c0.6-2.1,1.4-4.2,2.5-6.1
		c0.6-1,1.4-1.8,2.3-2.5c0.8-0.6,1.6-1.2,2.5-2c0,0.3-0.1,0.7-0.4,0.9c-0.8,0.8-1.5,1.7-2.2,2.7C383.2,256.9,382.7,257.9,382.5,259
		L382.5,259z"/>
	
		<linearGradient id="SVGID_1_" gradientUnits="userSpaceOnUse" x1="377.048" y1="505.2939" x2="377.048" y2="516.9339" gradientTransform="matrix(0.99 0.11 0.11 -0.99 -72.19 738.78)">
		<stop  offset="0" style="stop-color:#000000"/>
		<stop  offset="0" style="stop-color:#060606"/>
		<stop  offset="1.000000e-02" style="stop-color:#171717"/>
		<stop  offset="1.000000e-02" style="stop-color:#333333"/>
		<stop  offset="2.000000e-02" style="stop-color:#5A5A5A"/>
		<stop  offset="2.000000e-02" style="stop-color:#8C8C8C"/>
		<stop  offset="3.000000e-02" style="stop-color:#C9C9C9"/>
		<stop  offset="3.000000e-02" style="stop-color:#FFFFFF"/>
		<stop  offset="0.13" style="stop-color:#FBF9FD"/>
		<stop  offset="0.27" style="stop-color:#EEE6F8"/>
		<stop  offset="0.43" style="stop-color:#DAC8F0"/>
		<stop  offset="0.61" style="stop-color:#BD9FE5"/>
		<stop  offset="0.8" style="stop-color:#996AD7"/>
		<stop  offset="1" style="stop-color:#6F2CC6"/>
	</linearGradient>
	<path class="st1" d="M369,274.2c-1.5,1.1-3.2,1.9-4.8,2.9c-0.2,0.1-0.3,0.2-0.4,0.4c-0.1,0.1-0.2,0.2-0.3,0.3l-0.1,0.1v0l0,0
		c-0.1,0.1-0.2,0.1-0.3,0.2c-1,1-2.2,1.8-3.5,2.5c-0.4,0.2-0.8,0.3-1.2,0.3c-1,0.1-2,0.4-3.1,0.4c-1.1,0-2.1-0.4-2.8-1.3
		c-0.3-0.4-0.6-0.8-0.9-1.3l0,0c-0.1-0.1-0.2-0.2-0.3-0.3c-0.1-0.2-0.2-0.3-0.3-0.5s-0.2-0.2-0.3-0.3c-0.4-0.7-0.7-1.5-1.1-2.2v-0.1
		l0,0l-0.1-0.1c0,0-0.1-0.1-0.1-0.1c0,0,0,0,0-0.1l0,0c0,0-0.1-0.1-0.1-0.1c0,0-0.1,0-0.1-0.1l0,0c0,0-0.1-0.1-0.1-0.1l0-0.1
		c-0.2-0.2-0.4-0.5-0.6-0.8l-0.1-0.2c0,0,0-0.1-0.1-0.1c-0.1-0.1-0.2-0.3-0.3-0.5c0,0-0.1-0.1-0.1-0.2l0,0l0,0c0,0-0.1-0.1-0.1-0.2
		c0,0,0-0.1,0-0.1l0,0l-0.3-0.5l0,0c0,0,0,0,0,0l0,0l0,0l0,0c0,0-0.1-0.1-0.1-0.1c0,0-0.1-0.1-0.1-0.1l0,0l0,0c0,0,0,0,0,0
		c-0.1-0.2-0.3-0.4-0.4-0.6l-0.3-0.3c-0.3-0.2-0.6-0.5-0.8-0.8c0,0-0.1-0.1-0.1-0.1c0,0,0-0.1,0-0.1v-0.1c0-0.1-0.1-0.2-0.1-0.3
		c0-0.3,0.3-0.6,0.6-0.7c0.6-0.1,1.3-0.1,1.9,0.1c0.8,0.1,1.5,0.3,2.2,0.7c1.6,0.7,3,1.7,4.7,2.2c0.8,0.2,1.5-0.2,2.3-0.3
		c0.1,0,0.2,0,0.4-0.1c1.2-0.3,2.4-0.4,3.6-0.3l0,0c0.4,0,0.8,0,1.2,0.1c0.9-0.1,1.8,0.1,2.7,0.3c0.2,0,0.5,0.1,0.7,0.2
		c0.5,0.1,1.1,0.2,1.6,0.4c0.7,0.3,1.3,0.6,1.9,1C369.6,273.6,369.4,274,369,274.2z"/>
	
		<linearGradient id="SVGID_2_" gradientUnits="userSpaceOnUse" x1="372.3893" y1="515.6576" x2="362.6793" y2="532.4676" gradientTransform="matrix(0.99 0.11 0.11 -0.99 -72.19 738.78)">
		<stop  offset="0" style="stop-color:#000000"/>
		<stop  offset="0" style="stop-color:#060606"/>
		<stop  offset="1.000000e-02" style="stop-color:#171717"/>
		<stop  offset="1.000000e-02" style="stop-color:#333333"/>
		<stop  offset="2.000000e-02" style="stop-color:#5A5A5A"/>
		<stop  offset="2.000000e-02" style="stop-color:#8C8C8C"/>
		<stop  offset="3.000000e-02" style="stop-color:#C9C9C9"/>
		<stop  offset="3.000000e-02" style="stop-color:#FFFFFF"/>
		<stop  offset="0.13" style="stop-color:#FBF9FD"/>
		<stop  offset="0.27" style="stop-color:#EEE6F8"/>
		<stop  offset="0.43" style="stop-color:#DAC8F0"/>
		<stop  offset="0.61" style="stop-color:#BD9FE5"/>
		<stop  offset="0.8" style="stop-color:#996AD7"/>
		<stop  offset="1" style="stop-color:#6F2CC6"/>
	</linearGradient>
	<path class="st2" d="M355.6,269.5c0,0.2,0.2,0.6-0.1,0.6s-0.8,0.2-1.1,0h-0.1c-0.9-0.2-1.8-0.7-2.5-1.3c-0.5-0.5-1-1-1.5-1.5
		c-0.1-0.1-0.2-0.2-0.3-0.3c-0.1-0.1-0.1-0.2-0.2-0.2l0,0c-1.3-1.7-2.2-3.6-2.6-5.6c-0.1-0.2-0.1-0.5-0.2-0.7
		c-0.5-1.5-0.7-3.1-0.8-4.6c-0.1-0.9,0-1.8,0.1-2.6c0-0.1,0-0.2,0.2-0.3c1,2.6,1.8,5.2,3.4,7.5c0.7,0.9,1.5,1.8,2.1,2.7
		c0.6,0.7,1.4,1.3,1.9,2c0.7,0.8,1.2,1.8,1.4,2.9C355.4,268.5,355.8,269,355.6,269.5z"/>
	
		<linearGradient id="SVGID_3_" gradientUnits="userSpaceOnUse" x1="361.0512" y1="527.2272" x2="354.5112" y2="538.5472" gradientTransform="matrix(0.99 0.11 0.11 -0.99 -72.19 738.78)">
		<stop  offset="0" style="stop-color:#000000"/>
		<stop  offset="0" style="stop-color:#060606"/>
		<stop  offset="1.000000e-02" style="stop-color:#171717"/>
		<stop  offset="1.000000e-02" style="stop-color:#333333"/>
		<stop  offset="2.000000e-02" style="stop-color:#5A5A5A"/>
		<stop  offset="2.000000e-02" style="stop-color:#8C8C8C"/>
		<stop  offset="3.000000e-02" style="stop-color:#C9C9C9"/>
		<stop  offset="3.000000e-02" style="stop-color:#FFFFFF"/>
		<stop  offset="0.13" style="stop-color:#FBF9FD"/>
		<stop  offset="0.27" style="stop-color:#EEE6F8"/>
		<stop  offset="0.43" style="stop-color:#DAC8F0"/>
		<stop  offset="0.61" style="stop-color:#BD9FE5"/>
		<stop  offset="0.8" style="stop-color:#996AD7"/>
		<stop  offset="1" style="stop-color:#6F2CC6"/>
	</linearGradient>
	<path class="st3" d="M344.9,250.6c-0.6,1.4-1.2,2.8-1.8,4.1c0,0.1-0.1,0.1-0.1,0.2c-0.1,0.4-0.3,0.8-0.5,1.2c0,0.6-0.2,1.3-0.6,1.8
		c-0.2,0.2-0.2,0.5-0.2,0.7c-0.1,0.7-0.4,0.8-0.9,0.4c-0.3-0.2-0.7-0.5-0.9-0.9c-1.2-1.6-1.9-3.6-2-5.6c-0.1-1.8,0.1-3.7-0.4-5.5
		c-0.1-0.3,0.1-0.5,0.4-0.3c1.8,1,3.9,1.2,5.6,2.3c0.5,0.3,0.9,0.9,1.5,1.2C345,250.3,344.9,250.5,344.9,250.6z"/>
	<path class="st4" d="M363.1,290.6c-1.3,0.7-2.7,1-4.1,1.1c-1.5,0.1-3,0.4-4.4,0.8c-0.3,0.1-0.5,0.3-0.8,0.4
		c0.1-0.4,0.4-0.5,0.7-0.7c0.7-0.5,1.4-1,2.2-1.4c1-0.5,2.1-0.2,3.1-0.4c0.4,0,0.8-0.2,1.1-0.4c0.3-0.3,0.5-0.3,0.7,0.1
		S362.5,290.3,363.1,290.6z"/>
	<path class="st4" d="M391.3,286c0,0.3-0.3,0.1-0.5,0.2c-0.8,0.2-1.5,0.3-2.3,0.4c-0.8,0.2-1.7,0.4-2.6,0.5c-1,0.2-2.1,0.4-3.1,0.8
		c-1.8,0.4-3.4,1.4-5.1,1.9c-1.5,0.4-3,0.6-4.5,0.7c-1.8,0.1-3.7,0.1-5.5-0.2c-1.9,0-3.8-0.6-5.5-1.5c-0.9-0.4-1.8-1-2.5-1.8
		c-0.7-0.8-1-1.8-1-2.8c-0.2,0.2-0.3,0.5-0.5,0c0-0.1-0.1-0.3-0.1-0.4c-0.8-1.4-0.5-1.6,1.2-1.7c0.1,0,0.3,0,0.4,0.1
		c2,2.1,4.6,3.2,7.2,4.4c2.3,0.9,4.8,1.3,7.3,1.2c1.2,0.2,2.4,0.3,3.6,0.2c1-0.1,2-0.4,3-0.8c1.4-0.6,2.8-1.5,4.3-1.4
		c1,0.1,1.8-0.4,2.7-0.4s1.9,0.2,2.9,0.2C390.9,285.8,391.3,285.8,391.3,286z"/>
	<path class="st4" d="M386.4,252.5c0,0.3-0.1,0.7-0.4,0.9c-0.8,0.8-1.5,1.7-2.2,2.7c-0.7,0.9-1.2,1.9-1.5,3c-0.1,0.6-0.7,1-0.7,1.7
		c-0.1,0.9-0.3,1.8-0.6,2.7c-0.4,1.3-0.9,2.6-1.4,3.8c-0.2,0.8-0.5,1.6-0.8,2.3c-0.4,1-0.8,1.9-1.1,2.9c-0.3,0.6-0.8,1.2-1.3,1.7
		c-1.4,1.7-3.3,3.1-5.4,3.9c-1.7,0.7-3.6,1-5.5,0.9c-0.3,0-0.6,0-0.8,0c-0.2,0-0.3-0.1-0.4-0.2c-0.1-0.2,0.1-0.3,0.2-0.4
		c0.7-0.8,1.6-1.5,2.6-1.9c0.7-0.3,1.5-0.7,2.1-1.1c0.7-0.3,1.1-1,1.1-1.7c0.1-0.8-0.4-1.6-1.1-2c-0.4-0.2-1-0.3-1-0.7
		s0.7-0.7,1.2-0.8c0.2-0.1,0.5-0.1,0.8-0.2c1.3-0.5,2.7-0.6,4-1.2c2.5-1.2,3.8-3.3,4.7-5.8c0.6-2.1,1.4-4.2,2.5-6.1
		c0.6-1,1.4-1.8,2.3-2.5C384.7,253.8,385.6,253.2,386.4,252.5z"/>
	
		<linearGradient id="SVGID_4_" gradientUnits="userSpaceOnUse" x1="397.354" y1="514.9119" x2="404.434" y2="527.1619" gradientTransform="matrix(0.99 0.11 0.11 -0.99 -72.19 738.78)">
		<stop  offset="0" style="stop-color:#000000"/>
		<stop  offset="0" style="stop-color:#060606"/>
		<stop  offset="1.000000e-02" style="stop-color:#171717"/>
		<stop  offset="1.000000e-02" style="stop-color:#333333"/>
		<stop  offset="2.000000e-02" style="stop-color:#5A5A5A"/>
		<stop  offset="2.000000e-02" style="stop-color:#8C8C8C"/>
		<stop  offset="3.000000e-02" style="stop-color:#C9C9C9"/>
		<stop  offset="3.000000e-02" style="stop-color:#FFFFFF"/>
		<stop  offset="0.13" style="stop-color:#FBF9FD"/>
		<stop  offset="0.27" style="stop-color:#EEE6F8"/>
		<stop  offset="0.43" style="stop-color:#DAC8F0"/>
		<stop  offset="0.61" style="stop-color:#BD9FE5"/>
		<stop  offset="0.8" style="stop-color:#996AD7"/>
		<stop  offset="1" style="stop-color:#6F2CC6"/>
	</linearGradient>
	<path class="st5" d="M383.7,260.5c0.2,1.5,0.3,2.9,0.4,4.4c0.3,2.5-0.9,4.6-1.8,6.8c-0.4,0.7-0.9,1.4-1.5,2
		c-0.2,0.2-0.5,0.1-0.8,0.2c-0.5,0-1.1,0-1.7,0c0.8-1.5,1.3-3,2-4.4c1.3-2.7,1.7-5.7,2.7-8.5c0.1-0.1,0.1-0.3,0.1-0.5
		s0.1-0.4,0.3-0.4S383.6,260.4,383.7,260.5z"/>
	
		<linearGradient id="SVGID_5_" gradientUnits="userSpaceOnUse" x1="376.8942" y1="503.5539" x2="376.8942" y2="495.3539" gradientTransform="matrix(0.99 0.11 0.11 -0.99 -72.19 738.78)">
		<stop  offset="0" style="stop-color:#000000"/>
		<stop  offset="0" style="stop-color:#060606"/>
		<stop  offset="1.000000e-02" style="stop-color:#171717"/>
		<stop  offset="1.000000e-02" style="stop-color:#333333"/>
		<stop  offset="2.000000e-02" style="stop-color:#5A5A5A"/>
		<stop  offset="2.000000e-02" style="stop-color:#8C8C8C"/>
		<stop  offset="3.000000e-02" style="stop-color:#C9C9C9"/>
		<stop  offset="3.000000e-02" style="stop-color:#FFFFFF"/>
		<stop  offset="0.13" style="stop-color:#FBF9FD"/>
		<stop  offset="0.27" style="stop-color:#EEE6F8"/>
		<stop  offset="0.43" style="stop-color:#DAC8F0"/>
		<stop  offset="0.61" style="stop-color:#BD9FE5"/>
		<stop  offset="0.8" style="stop-color:#996AD7"/>
		<stop  offset="1" style="stop-color:#6F2CC6"/>
	</linearGradient>
	<path class="st6" d="M359.2,289.2c-0.1,0-0.1,0-0.2,0c-1.8-0.3-3.2,0.7-4.7,1.4c-0.2,0.1-0.4,0.2-0.7,0.3c-1,0.3-1.1,0.3-1.3-0.8
		c0-0.2-0.1-0.4-0.1-0.7c-0.2-0.7,0-1.5-0.3-2.2c-0.1-0.3,0.1-0.4,0.3-0.6c1-0.8,1.8-1.8,2.4-3c0.4-0.7,0.8-0.8,1.1-0.1
		s0.7,1.2,1,1.8c0.4,0.8,1,1.5,1.7,2c0.4,0.3,0.7,0.7,1,1.2C359.6,288.9,359.5,289.1,359.2,289.2z"/>
	
		<linearGradient id="SVGID_6_" gradientUnits="userSpaceOnUse" x1="389.4966" y1="496.6451" x2="406.6166" y2="513.7651" gradientTransform="matrix(0.99 0.11 0.11 -0.99 -72.19 738.78)">
		<stop  offset="0" style="stop-color:#000000"/>
		<stop  offset="0" style="stop-color:#060606"/>
		<stop  offset="1.000000e-02" style="stop-color:#171717"/>
		<stop  offset="1.000000e-02" style="stop-color:#333333"/>
		<stop  offset="2.000000e-02" style="stop-color:#5A5A5A"/>
		<stop  offset="2.000000e-02" style="stop-color:#8C8C8C"/>
		<stop  offset="3.000000e-02" style="stop-color:#C9C9C9"/>
		<stop  offset="3.000000e-02" style="stop-color:#FFFFFF"/>
		<stop  offset="0.13" style="stop-color:#FBF9FD"/>
		<stop  offset="0.27" style="stop-color:#EEE6F8"/>
		<stop  offset="0.43" style="stop-color:#DAC8F0"/>
		<stop  offset="0.61" style="stop-color:#BD9FE5"/>
		<stop  offset="0.8" style="stop-color:#996AD7"/>
		<stop  offset="1" style="stop-color:#6F2CC6"/>
	</linearGradient>
	<path class="st7" d="M392.4,284.3c-0.7,0.1-1.4,0-2-0.2c-1.2-0.2-2.4-0.2-3.7,0c-1.9,0.2-3.8,0.6-5.6,1.1c-0.9,0.4-1.8,0.6-2.7,0.8
		c-1.6,0.2-3.1,0.1-4.7,0.2c-2.4,0-4.8-0.5-7.1-1.5c-1.7-0.5-3.3-1.3-4.7-2.3c-0.2-0.2-0.4-0.3-0.6-0.5c-0.3-0.4-0.3-0.8,0.2-1
		c0.4-0.2,0.7-0.4,1-0.7c0.5-0.4,1.1-0.5,1.7-0.3c2.3,0.5,4.5-0.1,6.6-0.8c2-0.7,3.9-1.8,5.5-3.1c0.9-0.5,1.9-0.8,2.9-0.8
		c1.4-0.1,2.7-0.1,4.1,0.1c1.1,0,2.2,0.2,3.2,0.6c0.8,0.4,1.6,1,2.2,1.7c1,1,1.8,2,2.6,3.2c0.6,0.9,1.1,1.9,1.5,2.9
		C393.1,284.3,392.6,284.2,392.4,284.3z"/>
	
		<linearGradient id="SVGID_7_" gradientUnits="userSpaceOnUse" x1="387.5209" y1="515.599" x2="400.9409" y2="538.849" gradientTransform="matrix(0.99 0.11 0.11 -0.99 -72.19 738.78)">
		<stop  offset="0" style="stop-color:#000000"/>
		<stop  offset="0" style="stop-color:#060606"/>
		<stop  offset="1.000000e-02" style="stop-color:#171717"/>
		<stop  offset="1.000000e-02" style="stop-color:#333333"/>
		<stop  offset="2.000000e-02" style="stop-color:#5A5A5A"/>
		<stop  offset="2.000000e-02" style="stop-color:#8C8C8C"/>
		<stop  offset="3.000000e-02" style="stop-color:#C9C9C9"/>
		<stop  offset="3.000000e-02" style="stop-color:#FFFFFF"/>
		<stop  offset="0.13" style="stop-color:#FBF9FD"/>
		<stop  offset="0.27" style="stop-color:#EEE6F8"/>
		<stop  offset="0.43" style="stop-color:#DAC8F0"/>
		<stop  offset="0.61" style="stop-color:#BD9FE5"/>
		<stop  offset="0.8" style="stop-color:#996AD7"/>
		<stop  offset="1" style="stop-color:#6F2CC6"/>
	</linearGradient>
	<path class="st8" d="M386,251.8c-0.2,0.2-0.5,0.4-0.7,0.6c-0.9,0.6-1.7,1.4-2.6,2c-1,0.8-1.9,1.8-2.4,3c-0.5,1-0.9,2-1.4,3
		c-0.3,0.8-0.6,1.6-0.8,2.4c-0.4,1.5-1.1,2.8-2.2,3.9c-0.7,0.7-1.7,1.2-2.7,1.3c-0.5,0.1-0.9,0.2-1.3,0.4c-1.1,0.4-2.1,0.7-3.2,1.1
		c-0.5,0.2-1,0.5-1.4,0.9c-0.3,0.3-0.7,0.3-1,0.1c-0.4-0.2-0.1-0.5,0-0.7c0.3-1.5,0.9-2.9,1.8-4.1c0.9-1.3,1.7-2.7,2.4-4.1
		c0.9-1.5,2.2-2.9,3.6-3.9c1.7-1.5,3.8-2.2,5.8-3.2c0.6-0.3,1.2-0.6,1.7-1c1-0.5,2.1-1,3.1-1.5c0.4-0.2,0.8,0,1.2-0.3L386,251.8z"/>
	<path class="st4" d="M374.4,253.2c-0.1,0-0.2-0.1-0.3-0.3c-1-1.7-2.1-3.3-3.4-4.7c-0.8-1-1.8-1.9-2.9-2.6c-0.3-0.3-0.6-0.6-0.9-1
		c-1.2-1.1-2.3-2.2-3.3-3.4c-0.8-0.9-1.4-2.1-1.6-3.4c0-0.7-0.1-1.3-0.2-2c-0.1-0.5,0.1-0.6,0.6-0.6c0.4,0,0.7,0.2,0.9,0.5
		c0.8,1.5,1.7,3,2.7,4.4c0.6,0.9,1.4,1.7,2,2.6c0.5,0.6,1,1.2,1.6,1.7c1.6,1.7,2.8,3.6,3.8,5.6c0.3,0.7,1,1.3,1.1,2.1
		c0,0.2,0.1,0.3,0.1,0.5S374.6,253.1,374.4,253.2z"/>
	
		<linearGradient id="SVGID_8_" gradientUnits="userSpaceOnUse" x1="381.9923" y1="516.7039" x2="381.9923" y2="546.2339" gradientTransform="matrix(0.99 0.11 0.11 -0.99 -72.19 738.78)">
		<stop  offset="0" style="stop-color:#000000"/>
		<stop  offset="0" style="stop-color:#060606"/>
		<stop  offset="1.000000e-02" style="stop-color:#171717"/>
		<stop  offset="1.000000e-02" style="stop-color:#333333"/>
		<stop  offset="2.000000e-02" style="stop-color:#5A5A5A"/>
		<stop  offset="2.000000e-02" style="stop-color:#8C8C8C"/>
		<stop  offset="3.000000e-02" style="stop-color:#C9C9C9"/>
		<stop  offset="3.000000e-02" style="stop-color:#FFFFFF"/>
		<stop  offset="0.13" style="stop-color:#FBF9FD"/>
		<stop  offset="0.27" style="stop-color:#EEE6F8"/>
		<stop  offset="0.43" style="stop-color:#DAC8F0"/>
		<stop  offset="0.61" style="stop-color:#BD9FE5"/>
		<stop  offset="0.8" style="stop-color:#996AD7"/>
		<stop  offset="1" style="stop-color:#6F2CC6"/>
	</linearGradient>
	<path class="st9" d="M374.4,255.2c0,0.1,0,0.1,0,0.2l0,0c0,0.1,0,0.1,0,0.2c-0.1,0.3-0.3,0.5-0.4,0.8c0,0-0.1,0.1-0.2,0.1
		s0,0-0.1,0s0,0,0,0s-0.1,0.1-0.2,0.1l0,0c0,0,0,0-0.1,0s-0.1,0.1-0.1,0.1c-0.2,0.2-0.4,0.3-0.6,0.5c0,0-0.1,0.1-0.1,0.1l-0.8,0.5
		l0,0l0,0c-1.4,1.5-2.6,3.1-3.6,4.9c-1,1.6-1.7,3.3-2.6,5c-0.2,0.5-0.4,1-0.6,1.5c-0.2-0.2-0.4-0.6-0.4-0.9
		c-0.3-2.1-1.5-3.6-2.7-5.2c-0.6-0.7-1.3-1.3-2-1.7c-0.8-0.5-1.3-0.3-1.5,0.6c-0.3,1.4-0.6,2.8-0.8,4.2c-0.2,1.1-0.1,2.3,0.1,3.4
		c0,0.2,0.1,0.3-0.1,0.4s-0.3-0.1-0.3-0.3c-0.3-0.7-0.5-1.4-0.6-2.1c-0.1-1.6-0.9-3-2-4.1c-1.3-1.2-0.9-2.5-0.8-3.8
		c0-0.8,0.2-1.7,0.4-2.5c0.6-1.9,1.6-3.7,2.9-5.2c1.1-1.5,2-3.1,2.8-4.7c0.9-1.6,1.5-3.3,2-5.1c0.1-0.5,0.2-0.9,0.4-1.5
		c0.6,0.9,1.2,1.7,1.9,2.5c1.3,1.3,2.7,2.5,4,3.9c1,1,2,2.1,2.8,3.3c0.8,0.8,1.6,1.7,2.2,2.6c0.3,0.4,0.6,0.8,0.8,1.3l0.2,0.3l0,0
		l0,0c0,0.1,0.1,0.1,0.1,0.1C374.4,254.8,374.4,255,374.4,255.2z"/>
	<path class="st4" d="M361.1,239.3c-0.2,1-0.5,2.1-0.6,3.1c-0.2,1.3-0.6,2.6-1.2,3.8c-0.6,1.3-1.2,2.5-2,3.6
		c-0.6,0.8-1.1,1.6-1.6,2.4c-0.3,0.4-0.6,0.8-0.9,1.2c-0.5,0.8-0.8,1.6-1.4,2.4c-0.1,0.1-0.2,0.4-0.4,0.4c0-1.2,0.3-2.5,0.8-3.6
		c1.1-2.2,2.4-4.3,3.9-6.3c0.9-1.4,1.7-2.9,2.3-4.5c0.5-1.1,0.8-2.2,0.9-3.4c0-0.1,0.1-0.1,0.2-0.2
		C361.2,238.7,361.2,239,361.1,239.3z"/>
	
		<linearGradient id="SVGID_9_" gradientUnits="userSpaceOnUse" x1="370.2912" y1="534.7516" x2="366.7312" y2="540.9216" gradientTransform="matrix(0.99 0.11 0.11 -0.99 -72.19 738.78)">
		<stop  offset="0" style="stop-color:#000000"/>
		<stop  offset="0" style="stop-color:#060606"/>
		<stop  offset="1.000000e-02" style="stop-color:#171717"/>
		<stop  offset="1.000000e-02" style="stop-color:#333333"/>
		<stop  offset="2.000000e-02" style="stop-color:#5A5A5A"/>
		<stop  offset="2.000000e-02" style="stop-color:#8C8C8C"/>
		<stop  offset="3.000000e-02" style="stop-color:#C9C9C9"/>
		<stop  offset="3.000000e-02" style="stop-color:#FFFFFF"/>
		<stop  offset="0.13" style="stop-color:#FBF9FD"/>
		<stop  offset="0.27" style="stop-color:#EEE6F8"/>
		<stop  offset="0.43" style="stop-color:#DAC8F0"/>
		<stop  offset="0.61" style="stop-color:#BD9FE5"/>
		<stop  offset="0.8" style="stop-color:#996AD7"/>
		<stop  offset="1" style="stop-color:#6F2CC6"/>
	</linearGradient>
	<path class="st10" d="M354.7,248.8c-0.8,0.9-1.4,1.9-2,3c-0.1,0.2-0.2,0.4-0.3,0.6c-0.9-0.7-1.4-1.8-1.3-3c0-1.3-0.2-2.5-0.2-3.8
		c0-0.5,0-0.5,0.5-0.3c1.2,0.5,2.2,1.4,2.7,2.5c0.1,0.2,0.3,0.3,0.5,0.4C354.9,248.3,354.9,248.5,354.7,248.8z"/>
	<path class="st4" d="M351.8,255.3c-0.1,1.7,0,3.5,0.2,5.2c0.1,0.2,0,0.5-0.2,0.7c-1.2-1.3-2.1-2.9-2.8-4.5c0.4,0.1,0.8,0.1,0.8,0.6
		c0,0.1,0.1,0.2,0.3,0.1c0.1,0,0.1-0.1,0.1-0.2c0,0,0,0,0,0c-0.1-0.3-0.3-0.5-0.5-0.7c-1.1-0.9-1.2-1.4-0.4-2.7
		c0.3-0.4,0.4-0.8,0.6-1.2s0-0.9,0.2-1.2c0.2,0,0.3,0.1,0.4,0.2c0.4,0.7,0.8,1.5,1.2,2.2C351.8,254.2,351.9,254.8,351.8,255.3z"/>
	<path class="st4" d="M353.6,282.9c-0.7,1.3-1.7,2.5-3,3.2c-0.6,0.5-1.3,0.9-2,1.2c-0.8,0.2-1.7,0.3-2.6,0.3c-1.4,0-2.8-0.2-4.1-0.6
		c-1-0.3-2-0.5-3-0.7c-1.1-0.2-2.2-0.6-3.2-1.1c0.9-0.2,1.9-0.1,2.8,0.1c2,0.3,4.1,0.5,6.1,0.5c1.1,0,2.1-0.2,3.1-0.6
		c0.4-0.1,0.9-0.2,1.3-0.3c1-0.3,1.8-0.9,2.5-1.7c0.4-0.5,1.1-0.6,1.6-1.1c0.1-0.1,0.5,0,0.6,0.2S353.7,282.8,353.6,282.9z"/>
	<path class="st4" d="M344.4,270.1c0.7,1.4,1.9,2.5,2.8,3.7c0.7,1,1.4,1.9,2.1,2.9c-0.3,0.1-0.6,0.1-0.9,0c-1.2-0.7-2.5-1.1-3.4-2.2
		c-1.5-1.5-2.5-3.5-2.8-5.5c-0.2-1.7-0.3-3.3-0.1-5c0-1.7,0.3-3.4,1-5c0.4-0.8,0.4-1.8,0.7-2.7c0.2-0.7,0.4-1.4,0.8-2
		c0.3-0.3,0.6-0.6,0.8-1c0,0.4,0.1,0.8-0.4,0.9c-0.2,0.1-0.2,0.3-0.1,0.4c0.1,0.3,0,0.6-0.1,0.9c-0.1,0.1-0.1,0.3,0,0.4
		c0.4,0.3,0.1,0.7,0.2,1c0.2,1.8,0.7,3.6,1.4,5.3c0.4,1,0.8,1.9,1.3,2.8c0.4,1.1,1,2.1,1.8,2.9c-0.3,0.1-0.6,0.1-0.9,0
		c-1-0.3-2.1-0.2-3.1,0.2c-0.7,0.3-1.1,1.1-0.8,1.9C344.3,270.1,344.4,270.1,344.4,270.1z"/>
	<path class="st4" d="M340.9,261.8c-0.2,0.9-0.1,1.8-0.3,2.6c0,0.1-0.1,0.2-0.1,0.3c-0.4-0.3-0.5-0.7-0.4-1.2c0.3-0.8-0.3-1-0.6-1.3
		c-0.7-0.5-1.2-1.1-1.6-1.8c0,0,0-0.1,0-0.1c-1,0.2-0.7-0.7-1-1.1c-0.8-1.1-1.1-2.5-1-3.8c0.1-2,0.1-4,0.1-6c0-0.4,0-1.3,0.3-1.2
		c0.5,0.1,0.1,0.7,0.2,1.1c0.2,1.6-0.3,3.3,0.2,4.8c0.2,0.9,0.4,1.8,0.8,2.6c0.3,0.7,0.7,1.4,1.1,2c0.5,0.6,1.1,1,1.3,1.8
		c0.1,0.1,0.1,0.1,0.2,0.1C341,260.6,341.1,261.2,340.9,261.8z"/>
	
		<linearGradient id="SVGID_10_" gradientUnits="userSpaceOnUse" x1="370.6378" y1="506.9638" x2="347.6378" y2="506.9638" gradientTransform="matrix(0.99 0.11 0.11 -0.99 -72.19 738.78)">
		<stop  offset="0" style="stop-color:#000000"/>
		<stop  offset="0" style="stop-color:#060606"/>
		<stop  offset="1.000000e-02" style="stop-color:#171717"/>
		<stop  offset="1.000000e-02" style="stop-color:#333333"/>
		<stop  offset="2.000000e-02" style="stop-color:#5A5A5A"/>
		<stop  offset="2.000000e-02" style="stop-color:#8C8C8C"/>
		<stop  offset="3.000000e-02" style="stop-color:#C9C9C9"/>
		<stop  offset="3.000000e-02" style="stop-color:#FFFFFF"/>
		<stop  offset="0.13" style="stop-color:#FBF9FD"/>
		<stop  offset="0.27" style="stop-color:#EEE6F8"/>
		<stop  offset="0.43" style="stop-color:#DAC8F0"/>
		<stop  offset="0.61" style="stop-color:#BD9FE5"/>
		<stop  offset="0.8" style="stop-color:#996AD7"/>
		<stop  offset="1" style="stop-color:#6F2CC6"/>
	</linearGradient>
	<path class="st11" d="M351.3,280.8c-0.1,1-0.8,2-1.7,2.5c-1,0.4-2,0.8-3,1.1c-1.7,0.2-3.4,0.2-5.2,0c-2.6-0.3-5.3-0.5-8-0.7
		c-1.9-0.1-3.7-1-4.9-2.5c-0.4-0.5-0.4-1.2,0-1.7c1-1.4,2-2.8,3.2-4c0.3-0.3,0.5-0.7,0.8-1c1-1.2,1.7-2.6,3.1-3.4
		c1.3-0.8,2.6-1.5,4-2.2c0.9-0.4,1.1-0.1,1.4,0.7c0.3,1.2,0.8,2.4,1.5,3.4c0.2,0.3,0.4,0.6,0.5,0.9c0.5,0.9,1.2,1.7,2,2.3
		c0.8,0.7,1.7,1.3,2.7,1.7c0.9,0.4,1.8,0.6,2.6,1C350.9,279.3,351.3,280,351.3,280.8z"/>
	<path d="M344.9,253c-0.8,3-0.6,6.3,1.3,8.8c0.3,0.4,0.8-0.2,0.5-0.5c-1.8-2.3-1.8-5.4-1.1-8.1c0.1-0.2-0.1-0.4-0.3-0.5
		C345.1,252.6,344.9,252.8,344.9,253L344.9,253L344.9,253z"/>
	<path d="M348.6,253c-0.3,0.8-0.4,1.6-0.3,2.5c0.2,0.7,0.6,1.4,1.1,1.9c0.6,0.5,1.1,1.1,1.5,1.7c0.4,0.7,0.7,1.5,0.8,2.4
		c0,0.5,0.8,0.5,0.8,0c-0.1-1.5-0.8-2.9-1.9-4c-0.6-0.5-1-1-1.4-1.6c-0.3-0.9-0.2-1.8,0.1-2.6c0-0.2-0.1-0.4-0.3-0.4
		C348.8,252.7,348.7,252.8,348.6,253L348.6,253z"/>
	<path d="M338.9,258.9c0.5,1.2,1.4,2.1,2.5,2.7c0.2,0.1,0.4-0.1,0.5-0.3c0.1-0.2-0.1-0.4-0.3-0.5l0,0c0.1,0,0,0,0,0h-0.1l-0.2-0.1
		l-0.2-0.1l-0.1-0.1h0c-0.2-0.2-0.4-0.4-0.6-0.6l-0.1-0.1v0l-0.1-0.2l-0.2-0.4c-0.1-0.3-0.3-0.5-0.4-0.8c-0.1-0.2-0.3-0.2-0.5-0.1
		c-0.2,0.1-0.2,0.3-0.1,0.5L338.9,258.9z"/>
	<path d="M340.4,259.9c1.1,0.5,1.9-1.1,2.2-1.9c0.3-1,0.8-2,1.3-2.9c0.3-0.4-0.4-0.8-0.6-0.4c-0.5,0.8-0.9,1.6-1.1,2.5
		c-0.1,0.4-0.3,0.8-0.5,1.2c-0.1,0.2-0.2,0.4-0.4,0.5c-0.1,0.1-0.3,0.4-0.4,0.3c-0.2-0.1-0.4,0-0.5,0.1
		C340.1,259.6,340.2,259.8,340.4,259.9L340.4,259.9z"/>
	<path class="st4" d="M336,256.5c0,1.6,0.5,3.2,1.3,4.6c0.7,1.5,1.6,2.9,2.6,4.2c0.2,0.2,0.6,0.3,0.7-0.1c0.1-0.6,0.1-1.3,0.1-1.9
		c0-0.4-0.2-0.9-0.5-1.2c-0.2-0.1-0.4-0.2-0.6-0.4c-0.2-0.2-0.4-0.3-0.5-0.5c-0.3-0.4-0.5-0.9-0.8-1.3c-0.1-0.2-0.3-0.2-0.5-0.1
		s-0.2,0.3-0.1,0.5l2.1,3.9c0.2,0.4,0.8,0.1,0.7-0.3l-0.3-1.5c-0.1-0.5-0.8-0.3-0.7,0.2l0.3,1.5l0.7-0.3l-2.1-3.9l-0.6,0.4
		c0.4,0.7,0.9,1.4,1.5,2c0.4,0.3,0.8,0.3,0.9,0.8c0.1,0.6,0,1.2-0.1,1.9l0.7-0.1c-0.9-1.2-1.8-2.6-2.5-3.9c-0.8-1.4-1.3-2.9-1.4-4.5
		C336.7,256,336,256,336,256.5L336,256.5z"/>
	<path class="st4" d="M338.2,259.7c0.4,0.3,0.8,0.7,1.2,1c0.4,0.3,0.8,0.6,1.3,0.8c0.2,0.1,0.4-0.1,0.5-0.3c0,0,0,0,0,0
		c0.1-0.2-0.1-0.4-0.3-0.5h-0.1l0,0l-0.1-0.1l-0.3-0.2h-0.1l0,0l0,0l-0.1-0.1l-0.3-0.2c-0.4-0.3-0.8-0.6-1.1-0.9
		c-0.1-0.1-0.4-0.1-0.5,0c0,0,0,0,0,0c-0.1,0.1-0.1,0.4,0,0.5L338.2,259.7z"/>
	<path class="st4" d="M336,246.7c0,0.8,0.1,1.7,0.2,2.5s0,1.6-0.1,2.4c-0.2,1.6-0.1,3.1,0.2,4.7c0.1,0.2,0.3,0.3,0.5,0.2
		c0.2-0.1,0.3-0.2,0.2-0.4c-0.3-1.5-0.3-3.1-0.1-4.6c0-0.8,0.1-1.5,0.1-2.3s-0.2-1.6-0.2-2.4C336.7,246.2,336,246.2,336,246.7
		L336,246.7z"/>
	<path class="st4" d="M343.3,260.4c0.3-0.9,0.5-1.8,0.8-2.7c0.1-0.2-0.1-0.4-0.3-0.5c0,0,0,0,0,0c-0.2,0-0.4,0.1-0.5,0.3
		c-0.3,0.9-0.6,1.8-0.8,2.7c-0.1,0.2,0.1,0.4,0.3,0.5C343,260.7,343.2,260.6,343.3,260.4L343.3,260.4z"/>
	<path class="st4" d="M350,255.1c-0.2-0.8-0.1-1.6,0.1-2.3c0.2-0.8,0.3-1.6,0.2-2.4l-0.7,0.1c0.2,0.7,0.4,1.4,0.7,2.1
		c0.1,0.3,0.3,0.7,0.4,1c0.2,0.3,0.2,0.7,0.1,1c-0.1,0.5,0.6,0.7,0.7,0.2c0.1-0.8-0.1-1.5-0.5-2.2c-0.3-0.8-0.5-1.5-0.7-2.3
		c-0.1-0.4-0.8-0.3-0.7,0.1c0.2,1.7-0.7,3.3-0.3,4.9c0.1,0.2,0.3,0.3,0.5,0.3C349.9,255.5,350.1,255.3,350,255.1L350,255.1z"/>
	<path class="st4" d="M358.2,282.4c-0.3-0.1-0.6,0-0.8,0.2c-0.1,0.1-0.1,0.3-0.1,0.5c0.4,0.8,0.5,1.6,0.9,2.4
		c0.3,0.6,0.8,1.2,1.3,1.6c1,1,2.4,1.5,3.8,1.6c0.5,0,0.5-0.7,0-0.8c-1.9-0.2-3.6-1.3-4.5-3c-0.4-0.7-0.5-1.5-0.8-2.2l-0.1,0.5
		c0,0,0,0,0.1,0c0.2,0,0.4-0.1,0.4-0.3C358.5,282.6,358.4,282.5,358.2,282.4L358.2,282.4z"/>
	<path class="st4" d="M358.4,284c0,0.3,0.1,0.6,0.3,0.8c0.2,0.2,0.3,0.4,0.5,0.6c0.1,0.1,0.4,0.1,0.5,0s0.1-0.4,0-0.5l0,0
		c-0.1-0.1-0.2-0.3-0.4-0.4l0.1,0.1c-0.1-0.1-0.1-0.1-0.2-0.2c-0.1-0.1-0.1-0.2-0.1-0.2v0.1v-0.1v0.1v0v0.1l0,0
		c0.1-0.2,0-0.4-0.2-0.5c0,0,0,0,0,0C358.7,283.7,358.5,283.8,358.4,284L358.4,284z"/>
	<path class="st4" d="M374.3,289.3l0.7,0c1,0.1,1-1.4,0-1.5c-0.9-0.1-1.8-0.1-2.7,0c-0.4,0-0.8,0.3-0.8,0.8s0.3,0.8,0.8,0.8
		c1.3,0.1,2.7,0,4-0.1c0.6,0,1.2-0.1,1.8-0.3c0.5-0.2,1-0.4,1.5-0.6c2.4-0.7,4.9-1.2,7.4-1.5c1-0.1,1-1.6,0-1.5
		c-2.5,0.3-4.9,0.7-7.4,1.4c-1.1,0.4-2.2,0.8-3.3,1c-1.3,0.1-2.7,0.2-4,0.1v1.5c0.9-0.1,1.8-0.1,2.7,0v-1.5l-0.7,0
		C373.3,287.8,373.3,289.3,374.3,289.3L374.3,289.3z"/>
	<path class="st4" d="M387,286.1c1.5,0.1,3,0.2,4.5,0.3c0.5,0,0.5-0.7,0-0.8c-1.5-0.1-3-0.1-4.5-0.3
		C386.5,285.4,386.5,286.1,387,286.1z"/>
	<path class="st4" d="M364.2,241.8c0.5,0.8,1.1,1.5,1.8,2.1c0.8,0.7,1.5,1.5,2.3,2.2c1.5,1.5,3,3.1,4.4,4.7c0.3,0.4,0.9-0.2,0.5-0.5
		c-1.4-1.6-2.8-3.1-4.3-4.6c-0.7-0.7-1.4-1.4-2.2-2.1c-0.8-0.6-1.4-1.4-2-2.2C364.6,241,363.9,241.5,364.2,241.8L364.2,241.8z"/>
	<path class="st4" d="M382.5,256.8c-0.8,2.5-1.7,5-2.7,7.5c-0.2,0.5,0.5,0.6,0.7,0.2c1-2.5,1.9-5,2.7-7.5
		C383.4,256.5,382.6,256.3,382.5,256.8z"/>
	<path d="M328,282.4c-0.6-0.5-0.9-1.3-0.8-2.1c0.1-0.4,0.3-0.7,0.5-1.1l0.7-1.1c0.9-1.5,2.1-2.8,3.4-4c0.4-0.3-0.2-0.9-0.5-0.5
		c-0.7,0.7-1.5,1.5-2.1,2.2c-0.6,0.8-1.2,1.6-1.7,2.5c-0.6,0.7-0.9,1.5-1,2.4c0,0.9,0.4,1.7,1,2.2
		C327.8,283.2,328.3,282.7,328,282.4L328,282.4z"/>
	<path d="M339.1,268.6h1.4c0.2,0,0.4-0.2,0.4-0.4c0-0.2-0.2-0.4-0.4-0.4h-1.4c-0.2,0-0.3,0.2-0.3,0.4
		C338.8,268.4,338.9,268.6,339.1,268.6z"/>
	<path d="M332.8,274.1c1.2-1.5,2.6-2.9,4-4.1c0.1-0.1,0.1-0.4,0-0.5c-0.2-0.1-0.4-0.1-0.5,0c-1.5,1.3-2.8,2.6-4,4.1
		C331.9,274,332.4,274.5,332.8,274.1z"/>
	<path d="M346.2,270.9c-0.3-0.3-0.5-0.6-0.6-0.9c-0.1-0.3-0.1-0.6,0.1-0.9v0c0,0,0-0.1,0.1-0.1c0.1-0.1,0.2-0.1,0.3-0.1
		c0.2-0.1,0.3-0.1,0.5-0.1c0.4,0,0.9,0,1.3,0.1c0.2,0,0.4-0.1,0.5-0.3c0.1-0.2-0.1-0.4-0.3-0.5c0,0,0,0,0,0c-1-0.1-2.4-0.3-3,0.7
		c-0.2,0.4-0.3,0.9-0.2,1.4c0.2,0.5,0.4,0.9,0.8,1.3c0.1,0.1,0.4,0.1,0.5,0S346.4,271,346.2,270.9L346.2,270.9L346.2,270.9z"/>
	<path d="M353.9,247.5c0.2,0.4,0.5,0.8,0.8,1.1c0.1,0.1,0.4,0.1,0.5,0c0.1,0,0.1-0.1,0.1-0.2c0-0.1,0-0.2,0-0.3
		c-0.2-0.2-0.3-0.5-0.5-0.7c-0.1-0.2-0.3-0.3-0.5-0.2c-0.2,0.1-0.3,0.3-0.2,0.5c0,0,0,0.1,0.1,0.1c0.1,0.3,0.3,0.5,0.5,0.7l0.6-0.5
		c-0.1-0.1-0.2-0.2-0.2-0.3v0.1c-0.2-0.2-0.4-0.5-0.5-0.8c-0.1-0.2-0.3-0.2-0.5-0.1c0,0,0,0,0,0c-0.1,0-0.1,0.1-0.2,0.2
		C353.9,247.2,353.9,247.3,353.9,247.5L353.9,247.5z"/>
	<path d="M348.9,243.5c-0.7,1.6,0,3.3-0.1,5c0,1.8-0.4,3.6-1.2,5.3c-0.1,0.2,0,0.4,0.2,0.5c0.2,0.1,0.3,0,0.4-0.1
		c0.8-1.5,1.2-3.2,1.3-4.8c0.1-0.9,0.1-1.8,0-2.7c-0.2-0.9-0.2-1.8,0.1-2.7C349.8,243.4,349.2,243.1,348.9,243.5L348.9,243.5z"/>
	<path d="M337.3,287.1c2,0.4,3.9,1.4,6,1.4c0.2,0,0.3-0.2,0.3-0.4c0-0.2-0.2-0.3-0.3-0.3c-2,0-3.9-1-5.8-1.4
		C337.1,286.2,336.9,287,337.3,287.1z"/>
	<path d="M346.9,285.4l1.2-0.4l-0.3-0.7c-0.5,0.3-1,0.4-1.5,0.5l0.1,0.7c1.4-0.2,2.7-0.6,3.9-1.3c1.1-0.7,2.1-1.5,3-2.4
		c0.4-0.3-0.2-0.9-0.5-0.5c-0.9,0.9-1.8,1.7-2.9,2.3c-1.2,0.6-2.4,1-3.7,1.2c-0.4,0.1-0.3,0.8,0.1,0.7c0.7-0.1,1.3-0.3,1.9-0.6
		c0.2-0.1,0.2-0.3,0.1-0.5c-0.1-0.1-0.2-0.2-0.4-0.2l-1.2,0.4C346.2,284.9,346.4,285.6,346.9,285.4L346.9,285.4z"/>
	<path d="M355.9,283.8c0.7,1.9,1.7,3.6,3.1,5c1.3,1.1,3,1.9,4.7,2.2c0.5,0.1,0.7-0.6,0.2-0.7c-1.6-0.3-3.2-1-4.4-2.1
		c-1.3-1.4-2.3-3-2.9-4.7C356.3,283,355.7,283.4,355.9,283.8L355.9,283.8z"/>
	<path d="M344.3,249L344.3,249c0,0,0.1,0,0.1,0H344.3l0.2,0.1l-0.1-0.1c0.1,0.1,0.3,0.2,0.4,0.4l0.4,0.5c0.1,0.1,0.4,0.1,0.5,0
		c0.1-0.1,0.1-0.4,0-0.5c-0.2-0.2-0.4-0.5-0.6-0.7c-0.2-0.3-0.5-0.4-0.8-0.4c-0.2,0-0.4,0.2-0.4,0.4S344.2,249,344.3,249L344.3,249z
		"/>
	<path d="M343.9,248.9c0.1,0,0.2,0,0.3,0.1h-0.1c0.1,0,0.2,0.1,0.3,0.1l0.1,0l0,0l0,0l0.1,0.1c0.2,0.1,0.3,0.3,0.4,0.5
		c0.1,0.1,0.4,0.2,0.5,0c0,0,0,0,0,0c0.1-0.1,0.1-0.4,0-0.5c-0.3-0.5-0.8-0.8-1.4-1c-0.1,0-0.2,0-0.3,0c-0.1,0.1-0.1,0.1-0.2,0.2
		C343.6,248.6,343.7,248.8,343.9,248.9L343.9,248.9z"/>
	<path d="M373,248.5c0.7,1.1,1.3,2.3,1.6,3.5c0.2,0.6,0.2,1.3,0.1,1.9c-0.2,0.6-0.2,1.2,0,1.8c0.1,0.2,0.3,0.2,0.5,0.1c0,0,0,0,0,0
		c0.3-0.1,0.5-0.4,0.5-0.7c0.1-0.5-0.6-0.7-0.7-0.2c0,0.1,0,0.2-0.2,0.2l0.5,0.1c-0.1-0.3-0.1-0.7,0-1c0-0.3,0.1-0.6,0.1-0.9
		c0-0.6-0.1-1.2-0.3-1.8c-0.4-1.2-0.9-2.4-1.6-3.5C373.3,247.7,372.6,248.1,373,248.5L373,248.5z"/>
	<path d="M375.1,249.8c0.5,1.6,0.9,3.2,1.4,4.9c0.1,0.2,0.3,0.3,0.5,0.2c0.2-0.1,0.3-0.2,0.2-0.4c-0.4-1.6-0.9-3.3-1.4-4.9
		C375.7,249.1,375,249.3,375.1,249.8L375.1,249.8z"/>
	<path d="M373.5,249.9c0,0.4,0.1,0.8,0.3,1.1c0.1,0.3,0.2,0.7,0.3,1l0.2,1c0,0.2,0.1,0.4,0.2,0.5c0.1,0.2,0.4,0.3,0.6,0.2
		c0,0,0,0,0,0c0.4-0.3,0-0.9-0.4-0.6l0,0h0.3l0,0l0.2,0.1c0,0.1,0,0.1,0,0V253c0-0.1,0-0.1,0-0.2c0-0.1,0-0.3-0.1-0.4
		c-0.1-0.3-0.1-0.5-0.2-0.8c-0.1-0.3-0.1-0.5-0.3-0.8c0-0.1-0.1-0.3-0.2-0.4c-0.1-0.1-0.1-0.2-0.1-0.3c0-0.2-0.1-0.4-0.3-0.5
		c-0.2-0.1-0.4,0.1-0.5,0.3C373.6,250,373.6,250,373.5,249.9L373.5,249.9z"/>
	<path d="M386.2,251.9c0.2,0,0.4-0.2,0.4-0.4s-0.2-0.4-0.4-0.4l0,0c-0.2,0-0.4,0.2-0.4,0.4S386,251.9,386.2,251.9z"/>
	<path d="M365.6,269.3c0.1,0.6,0.3,1.4,1.1,1.5c0.3,0,0.6-0.1,0.9-0.3c0.4-0.2,0.9-0.4,1.3-0.6c1.7-0.6,3.5-1,5.1-1.7
		c1.5-0.4,2.7-1.4,3.6-2.7c0.8-1.6,1.5-3.3,2-5.1c0.2-0.5-0.6-0.7-0.7-0.2c-0.5,1.5-1,2.9-1.6,4.3c-0.6,1.3-1.7,2.3-3.1,2.8
		c-1.3,0.5-2.6,0.9-4,1.3c-0.7,0.2-1.4,0.5-2.1,0.8l-0.8,0.4c-0.3,0.2-0.6,0.2-0.9,0c-0.1-0.1-0.1-0.6-0.2-0.8
		C366.3,268.5,365.5,268.7,365.6,269.3L365.6,269.3z"/>
	<path d="M375.9,287.4c1.4,0.1,2.7-0.1,4-0.6l-0.3-0.7c-1,0.5-2,0.8-3.1,0.8c-0.5,0.1-0.5,0.8,0,0.8c1.3-0.1,2.6-0.4,3.9-0.8
		c1.3-0.4,2.4-1.1,3.7-1.4c0.2-0.1,0.3-0.3,0.2-0.5c-0.1-0.2-0.2-0.3-0.4-0.2c-1.2,0.3-2.4,1-3.6,1.4c-1.2,0.4-2.5,0.7-3.8,0.8v0.8
		c1.2-0.1,2.4-0.4,3.5-0.9c0.4-0.2,0.1-0.9-0.3-0.7c-1.2,0.5-2.5,0.7-3.8,0.6C375.4,286.6,375.4,287.3,375.9,287.4L375.9,287.4z"/>
	<path d="M390.1,285.1c0.8,0.1,1.6,0.1,2.4-0.1c0.4,0,0.7-0.2,0.9-0.6c0.1-0.3,0.2-0.7,0.2-1c0-0.5-0.8-0.5-0.8,0c0,0.1,0,0.3,0,0.4
		c0,0.1,0,0.2-0.1,0.2c0,0.1-0.1,0.1-0.2,0.1c-0.2,0-0.3,0.1-0.5,0.1c-0.6,0.1-1.3,0.1-1.9,0c-0.2,0-0.4,0.2-0.4,0.4
		C389.8,284.9,390,285.1,390.1,285.1L390.1,285.1z"/>
	<path d="M379.8,267.8c-0.4,1-0.8,1.9-1.1,2.9l0.7,0.2c0.2-1.1,0.7-2.1,1.3-3c0.1-0.2,0-0.4-0.1-0.5c0,0,0,0,0,0
		c-0.2-0.1-0.4,0-0.5,0.1c-0.6,1-1.1,2.1-1.3,3.2c-0.1,0.2,0.1,0.4,0.3,0.5c0,0,0,0,0,0c0.2,0.1,0.4-0.1,0.5-0.3
		c0.4-1,0.8-1.9,1.1-2.9c0.1-0.2-0.1-0.4-0.3-0.5C380,267.4,379.8,267.6,379.8,267.8L379.8,267.8z"/>
	<path d="M336.6,261.9c0.9,2.1,2.3,3.9,4,5.4c0.2,0.1,0.4,0.1,0.5,0c0.1-0.1,0.1-0.4,0-0.5c-1.6-1.5-2.9-3.3-3.8-5.3
		C337.1,261.1,336.4,261.5,336.6,261.9L336.6,261.9z"/>
	<path d="M363.1,234.6c2.1,3.1,4.1,6.4,6.8,9c1.3,1.3,2.7,2.5,4,3.8c0.7,0.7,1.2,1.5,1.5,2.4c0.2,0.9,0.4,1.9,0.5,2.8
		c0,0.5,0.8,0.5,0.8,0c0-1.7-0.5-3.4-1.4-4.9c-1.2-1.4-2.6-2.8-4-4c-2.9-2.8-5.1-6.2-7.3-9.5C363.6,233.8,362.9,234.2,363.1,234.6
		L363.1,234.6z"/>
	<path d="M353.6,257c0.4-1,1-2,1.7-2.9l2.1-3.1c0.3-0.4-0.4-0.8-0.6-0.4l-2.2,3.2c-0.7,0.9-1.3,1.9-1.7,3
		C352.7,257.3,353.5,257.5,353.6,257L353.6,257z"/>
	<path d="M330.2,284.1c0.9,0.4,1.7,0.8,2.5,1.4c0.8,0.4,1.6,0.6,2.5,0.9c1.9,0.6,3.9,1.2,5.8,1.7c3.3,1,7.2,1.8,10.2-0.4
		c0.4-0.3,0-0.9-0.4-0.6c-3.1,2.2-7,1.1-10.3,0.2l-5.3-1.6c-0.9-0.3-1.8-0.6-2.7-1.1c-0.7-0.4-1.4-0.8-2.1-1.1
		C330,283.3,329.8,284,330.2,284.1L330.2,284.1z"/>
	<path d="M327.6,282.8c1.6,0.9,3.2,1.7,4.9,2.5c0.2,0.1,0.4,0,0.5-0.1c0.1-0.2,0-0.4-0.1-0.5c0,0,0,0,0,0c-1.7-0.8-3.3-1.6-4.9-2.5
		c-0.2-0.1-0.4,0-0.5,0.1C327.4,282.5,327.5,282.7,327.6,282.8L327.6,282.8z"/>
	<path d="M355.7,247.8c1.9-1.1,2.6-3.3,3.4-5.2c0.9-2.2,1.6-4.5,2-6.8c0.1-0.5-0.6-0.7-0.7-0.2c-0.4,2.1-1,4.2-1.7,6.2
		c-0.7,1.9-1.5,4.3-3.3,5.4c-0.2,0.1-0.2,0.4-0.1,0.5C355.4,247.8,355.6,247.8,355.7,247.8L355.7,247.8z"/>
	<path d="M355.8,247.6c1.7-1.9,3-4.1,3.9-6.5c0.2-0.5-0.6-0.6-0.7-0.2c-0.8,2.3-2.1,4.4-3.7,6.2C354.9,247.4,355.4,248,355.8,247.6z
		"/>
	<path d="M349.9,249.4c0.2,2.1,0.9,4,2.1,5.7c0.3,0.4,0.8-0.2,0.5-0.5c-1.1-1.5-1.8-3.3-1.9-5.2c0-0.2-0.2-0.4-0.4-0.4
		C350,249,349.9,249.2,349.9,249.4z"/>
	<path d="M349.2,249.4c-0.2,1.3-0.4,2.6-0.7,3.9c-0.1,0.5,0.6,0.7,0.7,0.2c0.3-1.4,0.6-2.7,0.7-4.1c0-0.2-0.2-0.4-0.4-0.4
		C349.3,249.1,349.2,249.2,349.2,249.4L349.2,249.4z"/>
	<path class="st4" d="M366.2,242.3c1.9,1.5,3.6,3.1,5.2,4.8c1.7,1.9,2.8,4.3,3.3,6.8c0.1,0.5,0.8,0.3,0.7-0.2
		c-0.9-5.3-4.8-8.7-8.7-12C366.4,241.4,365.9,241.9,366.2,242.3L366.2,242.3z"/>
	<path class="st4" d="M371.8,248c1,1.1,1.6,2.5,2,3.9c0.2,1.1,0.8,2.1,1.6,2.9c0.2,0.2,0.5-0.1,0.6-0.3c0.1-2.7-0.8-5.3-2.6-7.4
		c-1.8-1.9-3.9-3.5-6.2-4.8c-0.4-0.3-0.8,0.4-0.4,0.6c2.1,1.2,4.1,2.7,5.8,4.4c1.8,2,2.7,4.5,2.6,7.2l0.6-0.3
		c-1-0.8-1.2-2.3-1.6-3.4c-0.4-1.2-1-2.3-1.9-3.3C372,247.1,371.5,247.7,371.8,248L371.8,248z"/>
	<path class="st4" d="M373.1,248.7l0.3,0.2l0,0l0.1,0l0.1,0.1c0.1,0.1,0.2,0.2,0.3,0.3l0.1,0.1l0,0l0,0.1c0.1,0.2,0.3,0.4,0.4,0.6
		l0,0c0,0,0,0.1,0,0.1l0.1,0.2c0,0.1,0.1,0.3,0.1,0.4c0.1,0.2,0.3,0.3,0.5,0.3c0.2-0.1,0.3-0.3,0.3-0.5c-0.2-1.1-0.9-2.1-1.9-2.6
		c-0.2-0.1-0.4,0-0.5,0.1c-0.1,0.2,0,0.4,0.1,0.5L373.1,248.7z"/>
	<path class="st4" d="M363.9,239c1.7,2,3.5,3.9,5.4,5.7c0.4,0.3,0.9-0.2,0.5-0.5c-1.9-1.8-3.7-3.7-5.4-5.7
		C364.1,238.1,363.6,238.6,363.9,239L363.9,239z"/>
	<path d="M367.3,241c1.2,2.6,3.7,4,5.7,5.8c2.3,2.1,2.9,5,3.1,8c0,0.5,0.8,0.5,0.8,0c-0.1-2.9-0.7-5.8-2.7-8s-4.9-3.5-6.2-6.3
		C367.7,240.2,367,240.6,367.3,241L367.3,241z"/>
	<path d="M340.4,268.5c0.1,1.4,0.6,2.8,1.5,4c0.6,1.2,1.4,2.2,2.5,3c0.4,0.3,0.8-0.4,0.4-0.6c-0.9-0.7-1.7-1.6-2.2-2.7
		c-0.7-1.1-1.2-2.3-1.4-3.6c0-0.2-0.2-0.3-0.4-0.3C340.5,268.3,340.4,268.4,340.4,268.5L340.4,268.5z"/>
	<path d="M346.6,276.8c0.8,0.3,1.7,0.5,2.5,0.6c0.2,0,0.4-0.2,0.4-0.4c0-0.2-0.2-0.4-0.4-0.4c-0.8-0.1-1.6-0.2-2.3-0.5
		c-0.2-0.1-0.4,0.1-0.5,0.3c0,0,0,0,0,0C346.3,276.5,346.4,276.7,346.6,276.8L346.6,276.8z"/>
	<path d="M344.7,257.9c0.4,3.9,1.8,7.5,4.2,10.6c0.3,0.4,0.8-0.2,0.5-0.5c-2.3-2.9-3.6-6.4-4-10
		C345.4,257.4,344.6,257.4,344.7,257.9L344.7,257.9z"/>
	<path d="M341.1,265.8c0.2-1.9,0.5-3.7,1-5.6c0.1-0.5-0.6-0.7-0.7-0.2c-0.4,1.9-0.8,3.8-1,5.8c0,0.2,0.2,0.4,0.4,0.4
		C340.9,266.2,341,266,341.1,265.8L341.1,265.8z"/>
	<path d="M366,269.5c0.4-2.5,1.8-4.7,3.2-6.9c1.2-2,2.8-3.8,4.6-5.3c3.7-2.7,8-4.5,12.6-5.2c1-0.2,0.5-1.6-0.4-1.5
		c-4.8,0.8-9.3,2.7-13.2,5.6c-1.9,1.5-3.5,3.4-4.8,5.5c-1.5,2.3-3,4.6-3.4,7.4C364.4,270,365.9,270.4,366,269.5L366,269.5z"/>
	<g id="lines">
		<path class="st0" d="M399.4,405.8c0,0,7.9-1.2,10.9-4s8.1-8.9,10.3-8.9c-2,1.6-3.9,3.4-5.6,5.3c-1.3,1.8-5.5,8.6-12.5,8.1
			c0,0-2.7,0-2.5,1.3S399.2,406.3,399.4,405.8z"/>
		<path class="st0" d="M458.7,263.1c0,0-21.1,12.1-23.8,19l-2.7,7c0,0,0.5-6.9,5.3-11.6s12.9-10.3,13.8-11s5.1-3.5,5.1-3.5
			L458.7,263.1z"/>
		<path class="st0" d="M483.1,266.1c0,0-1.8,17.6-7,22.3c1.9-2,3.4-4.3,4.4-6.9c1.1-3.5,3.6-14.2,5.6-14.3S483.1,266.1,483.1,266.1z
			"/>
		<path class="st0" d="M292.8,339.2c0,0,10,0.5,14.1,4c-4.2-3.3-9.4-5-14.7-4.9C283,338.3,292.8,339.2,292.8,339.2z"/>
		<path class="st0" d="M272.4,332.4c0,0-7.8-6.3-8.9-11.7c1.4,5.1,4.5,9.6,8.9,12.7C279.7,339,272.4,332.4,272.4,332.4z"/>
		<path class="st0" d="M294,340.5c0,0,8.3,5.6,9.9,10.8c-1.9-5-5.4-9.2-10-11.9C286.1,334.6,294,340.5,294,340.5z"/>
		<path class="st0" d="M292.7,335.3c0,0,27,3,34.3-3.1c0,0-6.9,4.7-32.9,2.3C284.3,333.7,292.7,335.3,292.7,335.3z"/>
		<path class="st0" d="M284.6,322.8c0,0-1.9-17.2,5.2-19.3c0,0-4.9,0.6-6,8.7c-0.7,5.3-0.7,10.7,0,16L284.6,322.8z"/>
		<path class="st0" d="M263.8,330.9c0,0-3.2-0.7-7.1-6.3c0,0,3.6,7.7,9.6,9.2L263.8,330.9z"/>
		<path d="M268.8,344.8c0,0,1.9-3.2,7.4-4.9s15.4-2.2,15.4-2.2l1.2-4l3.6,1.2c-0.8,1.4-1.3,3-1.3,4.6c-0.1,0.7-0.7,1.3-1.4,1.3
			c-1.4,0.1-4,0.2-5.4,0.4S276.6,342,268.8,344.8z"/>
		<path class="st0" d="M463.5,381.1c0,0,24.4-9.8,23.5-26.5s1.3-3.3,1.3-3.3s6.3,27.5-25.9,35.2L463.5,381.1z"/>
		<path class="st0" d="M354,359.4c0,0-7.1,2.5-6.1-5.2s3.9-16.6,6.1-16.7c0,0-1.7,0-3.1,3.3s-3.8,12.2-3.8,14.5s0.1,4.7,2,5.7
			c1.4,0.6,3,0.9,4.5,1L354,359.4z"/>
	</g>
	<g id="purple">
		<path class="st0" d="M396.6,356.9c0,0,1.4-17.9,2-18.9s9.8-7.6,9.8-7.6s-1.9,2.5-3.4,4.4s-1,6.1-2.5,8s-2.9,3.4-3.6,5.6
			S396.6,356.9,396.6,356.9z"/>
		
			<linearGradient id="SVGID_11_" gradientUnits="userSpaceOnUse" x1="376.14" y1="347.39" x2="376.14" y2="323.0731" gradientTransform="matrix(1 0 0 -1 0 720)">
			<stop  offset="0" style="stop-color:#000000"/>
			<stop  offset="0.11" style="stop-color:#030106"/>
			<stop  offset="0.26" style="stop-color:#0D0517"/>
			<stop  offset="0.42" style="stop-color:#1D0B33"/>
			<stop  offset="0.61" style="stop-color:#32145A"/>
			<stop  offset="0.8" style="stop-color:#4F1F8C"/>
			<stop  offset="1" style="stop-color:#6F2CC6"/>
		</linearGradient>
		<path class="st12" d="M367.2,385.4c0,0,5.7,0.6,8.8-1.2c3-2,5.3-4.9,6.7-8.2c1.3-3.1,3-3.4,3-3.4c-1.2,1.2-1.9,2.8-2.1,4.5
			c-0.3,2.7-0.5,9.2-2.6,10.7s-6.6,3.6-7,3.9c-1.1,0.9-1.7,3.6-0.6,5s-6.6-5.9-6.6-5.9L367.2,385.4z"/>
		
			<linearGradient id="SVGID_12_" gradientUnits="userSpaceOnUse" x1="462.4571" y1="431.98" x2="462.4571" y2="464.8433" gradientTransform="matrix(1 0 0 -1 0 720)">
			<stop  offset="0" style="stop-color:#000000"/>
			<stop  offset="0.11" style="stop-color:#030106"/>
			<stop  offset="0.26" style="stop-color:#0D0517"/>
			<stop  offset="0.42" style="stop-color:#1D0B33"/>
			<stop  offset="0.61" style="stop-color:#32145A"/>
			<stop  offset="0.8" style="stop-color:#4F1F8C"/>
			<stop  offset="1" style="stop-color:#6F2CC6"/>
		</linearGradient>
		<path class="st13" d="M442.9,288c0.9-3.9,3.3-7.3,6.7-9.3c5.8-3.7,5.6-2.5,11.2-5.7s7.5-3.7,10.3-8.6s4.9-8.9,7-9.1
			s2.5,0.8,3.2,3.2s1.3,5.8,0.5,11.9s-5.5,16-5.5,16"/>
		
			<linearGradient id="SVGID_13_" gradientUnits="userSpaceOnUse" x1="431.64" y1="339.62" x2="431.64" y2="380.7175" gradientTransform="matrix(1 0 0 -1 0 720)">
			<stop  offset="0" style="stop-color:#111111"/>
			<stop  offset="0.12" style="stop-color:#141217"/>
			<stop  offset="0.27" style="stop-color:#1D1428"/>
			<stop  offset="0.45" style="stop-color:#2B1944"/>
			<stop  offset="0.64" style="stop-color:#401E6B"/>
			<stop  offset="0.85" style="stop-color:#59269C"/>
			<stop  offset="1" style="stop-color:#6F2CC6"/>
		</linearGradient>
		<path class="st14" d="M397.9,380.4c0,0,36.2-43.4,67.5-41C465.4,339.4,433.7,339.2,397.9,380.4z"/>
		
			<linearGradient id="SVGID_14_" gradientUnits="userSpaceOnUse" x1="436.285" y1="338.91" x2="436.285" y2="371.5431" gradientTransform="matrix(1 0 0 -1 0 720)">
			<stop  offset="0" style="stop-color:#111111"/>
			<stop  offset="0.12" style="stop-color:#141217"/>
			<stop  offset="0.27" style="stop-color:#1D1428"/>
			<stop  offset="0.45" style="stop-color:#2B1944"/>
			<stop  offset="0.64" style="stop-color:#401E6B"/>
			<stop  offset="0.85" style="stop-color:#59269C"/>
			<stop  offset="1" style="stop-color:#6F2CC6"/>
		</linearGradient>
		<path class="st15" d="M400.1,381.1c0,0,41.5-38.4,72.3-31.9C472.4,349.2,441,344.9,400.1,381.1z"/>
		
			<linearGradient id="SVGID_15_" gradientUnits="userSpaceOnUse" x1="490.078" y1="468.9859" x2="490.078" y2="498.1503" gradientTransform="matrix(0.998 6.348726e-02 6.348726e-02 -0.998 -83.489 821.0667)">
			<stop  offset="0" style="stop-color:#111111"/>
			<stop  offset="0.12" style="stop-color:#141217"/>
			<stop  offset="0.27" style="stop-color:#1D1428"/>
			<stop  offset="0.45" style="stop-color:#2B1944"/>
			<stop  offset="0.64" style="stop-color:#401E6B"/>
			<stop  offset="0.85" style="stop-color:#59269C"/>
			<stop  offset="1" style="stop-color:#6F2CC6"/>
		</linearGradient>
		<path class="st16" d="M403.1,382.1c0,0,39.2-31.9,66.3-24.4C469.4,357.8,441.7,352.2,403.1,382.1z"/>
	</g>
	<path class="st17" d="M559.8,358.9c0,111-89.9,200.9-200.9,200.9c-94.4,0-173.5-65.1-195.1-152.8c-6.5-26.5-7.5-53.9-3.1-80.8
		C176.3,230.8,259.1,158,358.9,158C469.9,158,559.8,247.9,559.8,358.9z"/>
	<g class="st18">
		<path d="M274.5,508.3h-1.7l-0.7-1.7H269l-0.6,1.7h-1.7l3.1-7.5h1.7L274.5,508.3z M271.6,505.4l-1.1-2.8l-1.1,2.8H271.6z"/>
		<path d="M285.9,505.9l1.5-0.1c0.1,0.5,0.3,0.9,0.6,1.1c0.3,0.2,0.7,0.3,1.1,0.3c0.5,0,0.9-0.1,1.2-0.3c0.3-0.2,0.4-0.4,0.4-0.7
			c0-0.2-0.1-0.3-0.2-0.5c-0.1-0.1-0.3-0.2-0.6-0.3c-0.2-0.1-0.6-0.2-1.3-0.3c-0.8-0.2-1.4-0.4-1.8-0.7c-0.5-0.4-0.7-0.9-0.7-1.5
			c0-0.4,0.1-0.7,0.3-1.1c0.2-0.3,0.6-0.6,1-0.8c0.4-0.2,0.9-0.3,1.5-0.3c1,0,1.7,0.2,2.2,0.6c0.5,0.4,0.8,1,0.8,1.6l-1.6,0.1
			c-0.1-0.4-0.2-0.7-0.4-0.8c-0.2-0.2-0.6-0.3-1-0.3c-0.5,0-0.8,0.1-1.1,0.3c-0.2,0.1-0.3,0.3-0.3,0.5c0,0.2,0.1,0.3,0.2,0.5
			c0.2,0.2,0.7,0.3,1.5,0.5s1.3,0.4,1.7,0.5c0.4,0.2,0.7,0.4,0.9,0.8s0.3,0.7,0.3,1.2c0,0.4-0.1,0.8-0.4,1.2
			c-0.2,0.4-0.6,0.7-1.1,0.8c-0.5,0.2-1,0.3-1.7,0.3c-1,0-1.8-0.2-2.3-0.7S286,506.8,285.9,505.9z"/>
		<path d="M304.1,505.9l1.5-0.1c0.1,0.5,0.3,0.9,0.6,1.1c0.3,0.2,0.7,0.3,1.1,0.3c0.5,0,0.9-0.1,1.2-0.3c0.3-0.2,0.4-0.4,0.4-0.7
			c0-0.2-0.1-0.3-0.2-0.5c-0.1-0.1-0.3-0.2-0.6-0.3c-0.2-0.1-0.6-0.2-1.3-0.3c-0.8-0.2-1.4-0.4-1.8-0.7c-0.5-0.4-0.7-0.9-0.7-1.5
			c0-0.4,0.1-0.7,0.3-1.1c0.2-0.3,0.6-0.6,1-0.8c0.4-0.2,0.9-0.3,1.5-0.3c1,0,1.7,0.2,2.2,0.6c0.5,0.4,0.8,1,0.8,1.6l-1.6,0.1
			c-0.1-0.4-0.2-0.7-0.4-0.8c-0.2-0.2-0.6-0.3-1-0.3c-0.5,0-0.8,0.1-1.1,0.3c-0.2,0.1-0.3,0.3-0.3,0.5c0,0.2,0.1,0.3,0.2,0.5
			c0.2,0.2,0.7,0.3,1.5,0.5s1.3,0.4,1.7,0.5c0.4,0.2,0.7,0.4,0.9,0.8s0.3,0.7,0.3,1.2c0,0.4-0.1,0.8-0.4,1.2
			c-0.2,0.4-0.6,0.7-1.1,0.8c-0.5,0.2-1,0.3-1.7,0.3c-1,0-1.8-0.2-2.3-0.7S304.2,506.8,304.1,505.9z"/>
		<path d="M322.5,504.7c0-0.8,0.1-1.4,0.4-1.9c0.2-0.4,0.4-0.7,0.7-1c0.3-0.3,0.6-0.5,1-0.7c0.5-0.2,1.1-0.3,1.7-0.3
			c1.2,0,2.1,0.3,2.8,1s1,1.6,1,2.8c0,1.2-0.3,2.1-1,2.8c-0.7,0.7-1.6,1-2.8,1c-1.2,0-2.1-0.3-2.8-1
			C322.8,506.8,322.5,505.9,322.5,504.7z M324.1,504.6c0,0.8,0.2,1.5,0.6,1.9c0.4,0.4,0.9,0.7,1.6,0.7s1.1-0.2,1.6-0.7
			c0.4-0.4,0.6-1.1,0.6-1.9c0-0.9-0.2-1.5-0.6-1.9c-0.4-0.4-0.9-0.6-1.6-0.6s-1.2,0.2-1.6,0.6C324.3,503.1,324.1,503.8,324.1,504.6z
			"/>
		<path d="M347.3,505.6l1.5,0.5c-0.2,0.8-0.6,1.4-1.2,1.8c-0.5,0.4-1.2,0.6-2.1,0.6c-1,0-1.9-0.3-2.6-1c-0.7-0.7-1-1.6-1-2.8
			c0-1.2,0.3-2.2,1-2.9s1.6-1,2.7-1c1,0,1.7,0.3,2.3,0.8c0.4,0.3,0.6,0.8,0.8,1.4l-1.6,0.4c-0.1-0.4-0.3-0.7-0.6-0.9
			c-0.3-0.2-0.7-0.3-1.1-0.3c-0.6,0-1.1,0.2-1.4,0.6c-0.4,0.4-0.5,1-0.5,1.9c0,0.9,0.2,1.6,0.5,2c0.4,0.4,0.8,0.6,1.4,0.6
			c0.4,0,0.8-0.1,1.1-0.4C346.9,506.6,347.2,506.2,347.3,505.6z"/>
		<path d="M361.1,508.3v-7.5h1.6v7.5H361.1z"/>
	</g>
	<g class="st18">
		<path d="M382.2,508.3h-1.7l-0.7-1.7h-3.1l-0.6,1.7h-1.7l3.1-7.5h1.7L382.2,508.3z M379.3,505.4l-1.1-2.8l-1.1,2.8H379.3z"/>
	</g>
	<g class="st18">
		<path d="M394.9,508.3v-6.2h-2.3v-1.3h6.2v1.3h-2.3v6.2H394.9z"/>
		<path d="M410.7,508.3v-7.5h1.6v7.5H410.7z"/>
		<path d="M424.5,504.7c0-0.8,0.1-1.4,0.4-1.9c0.2-0.4,0.4-0.7,0.7-1c0.3-0.3,0.6-0.5,1-0.7c0.5-0.2,1.1-0.3,1.7-0.3
			c1.2,0,2.1,0.3,2.8,1s1,1.6,1,2.8c0,1.2-0.3,2.1-1,2.8c-0.7,0.7-1.6,1-2.8,1c-1.2,0-2.1-0.3-2.8-1
			C424.8,506.8,424.5,505.9,424.5,504.7z M426.1,504.6c0,0.8,0.2,1.5,0.6,1.9c0.4,0.4,0.9,0.7,1.6,0.7s1.1-0.2,1.6-0.7
			c0.4-0.4,0.6-1.1,0.6-1.9c0-0.9-0.2-1.5-0.6-1.9c-0.4-0.4-0.9-0.6-1.6-0.6s-1.2,0.2-1.6,0.6C426.3,503.1,426.1,503.8,426.1,504.6z
			"/>
		<path d="M444.3,508.3v-7.5h1.5l3.2,5v-5h1.5v7.5h-1.6l-3.2-4.9v4.9H444.3z"/>
	</g>
	<rect x="143.3" y="427.5" class="st4" width="431.1" height="57.9"/>
	<g class="st18">
		<path class="st0" d="M156.2,470.6v-27.2h10.2c2.1,0,3.7,0.3,5,0.8c1.3,0.5,2.2,1.4,3,2.5c0.7,1.1,1.1,2.3,1.1,3.6
			c0,1.2-0.3,2.3-0.9,3.3c-0.6,1-1.6,1.9-2.9,2.5c1.6,0.5,2.9,1.3,3.8,2.5c0.9,1.2,1.3,2.5,1.3,4.1c0,1.3-0.3,2.5-0.8,3.6
			c-0.5,1.1-1.2,1.9-2,2.5c-0.8,0.6-1.8,1-3,1.3c-1.2,0.3-2.7,0.5-4.4,0.5H156.2z M159.8,454.8h5.9c1.6,0,2.7-0.1,3.4-0.3
			c0.9-0.3,1.6-0.7,2.1-1.4s0.7-1.4,0.7-2.4c0-0.9-0.2-1.7-0.6-2.4c-0.4-0.7-1.1-1.2-1.9-1.4c-0.8-0.3-2.2-0.4-4.1-0.4h-5.4V454.8z
			 M159.8,467.4h6.8c1.2,0,2,0,2.4-0.1c0.8-0.1,1.5-0.4,2.1-0.7c0.6-0.3,1-0.9,1.4-1.5c0.4-0.7,0.5-1.4,0.5-2.3c0-1-0.3-1.9-0.8-2.6
			c-0.5-0.7-1.2-1.3-2.2-1.6c-0.9-0.3-2.2-0.5-4-0.5h-6.3V467.4z"/>
		<path class="st0" d="M189.1,470.6v-27.2h3.6v24h13.4v3.2H189.1z"/>
		<path class="st0" d="M215,470.6l10.4-27.2h3.9l11.1,27.2h-4.1l-3.2-8.2h-11.4l-3,8.2H215z M222.8,459.4h9.2l-2.8-7.5
			c-0.9-2.3-1.5-4.2-1.9-5.6c-0.3,1.7-0.8,3.5-1.5,5.2L222.8,459.4z"/>
		<path class="st0" d="M270.3,461.1l3.6,0.9c-0.8,3-2.1,5.2-4.1,6.8c-2,1.6-4.4,2.3-7.2,2.3c-2.9,0-5.3-0.6-7.2-1.8
			c-1.8-1.2-3.2-2.9-4.2-5.2c-1-2.3-1.4-4.7-1.4-7.3c0-2.8,0.5-5.3,1.6-7.4c1.1-2.1,2.6-3.7,4.6-4.8c2-1.1,4.2-1.6,6.6-1.6
			c2.7,0,5,0.7,6.9,2.1c1.9,1.4,3.1,3.3,3.9,5.8l-3.5,0.8c-0.6-2-1.5-3.4-2.7-4.3c-1.2-0.9-2.7-1.4-4.5-1.4c-2.1,0-3.8,0.5-5.2,1.5
			c-1.4,1-2.4,2.3-3,4c-0.6,1.7-0.9,3.4-0.9,5.2c0,2.3,0.3,4.3,1,6.1c0.7,1.7,1.7,3,3.1,3.9c1.4,0.9,3,1.3,4.6,1.3
			c2,0,3.7-0.6,5.1-1.7C268.9,465.1,269.8,463.4,270.3,461.1z"/>
		<path class="st0" d="M285.8,470.6v-27.2h3.6v13.5l13.5-13.5h4.9l-11.4,11l11.9,16.2h-4.8l-9.7-13.8l-4.5,4.3v9.4H285.8z"/>
		<path class="st0" d="M335.9,461.9l3.4-0.3c0.2,1.4,0.5,2.5,1.1,3.3c0.6,0.9,1.5,1.6,2.7,2.1c1.2,0.5,2.6,0.8,4.2,0.8
			c1.4,0,2.6-0.2,3.6-0.6c1.1-0.4,1.8-1,2.3-1.7c0.5-0.7,0.8-1.5,0.8-2.3c0-0.9-0.2-1.6-0.7-2.2c-0.5-0.6-1.3-1.2-2.4-1.6
			c-0.7-0.3-2.3-0.7-4.8-1.3c-2.5-0.6-4.2-1.2-5.3-1.7c-1.3-0.7-2.3-1.5-2.9-2.5c-0.6-1-1-2.1-1-3.4c0-1.4,0.4-2.7,1.2-3.9
			c0.8-1.2,1.9-2.1,3.4-2.7c1.5-0.6,3.2-0.9,5-0.9c2,0,3.8,0.3,5.3,1c1.5,0.7,2.7,1.6,3.6,2.9c0.8,1.3,1.3,2.7,1.3,4.3l-3.5,0.3
			c-0.2-1.7-0.8-3-1.9-3.9c-1.1-0.9-2.7-1.3-4.7-1.3c-2.2,0-3.8,0.4-4.8,1.2c-1,0.8-1.5,1.8-1.5,2.9c0,1,0.4,1.8,1.1,2.4
			c0.7,0.6,2.5,1.3,5.4,1.9c2.9,0.7,4.9,1.2,6,1.7c1.6,0.7,2.8,1.7,3.5,2.8c0.8,1.1,1.1,2.4,1.1,3.9c0,1.4-0.4,2.8-1.2,4.1
			c-0.8,1.3-2,2.3-3.6,3c-1.6,0.7-3.3,1.1-5.2,1.1c-2.5,0-4.5-0.4-6.2-1.1c-1.7-0.7-3-1.8-3.9-3.2
			C336.4,465.3,335.9,463.7,335.9,461.9z"/>
		<path class="st0" d="M376.9,470.6v-24h-9v-3.2h21.6v3.2h-9v24H376.9z"/>
		<path class="st0" d="M418.7,443.4h3.6v15.7c0,2.7-0.3,4.9-0.9,6.5c-0.6,1.6-1.7,2.9-3.3,3.9c-1.6,1-3.7,1.5-6.4,1.5
			c-2.5,0-4.6-0.4-6.3-1.3c-1.6-0.9-2.8-2.1-3.5-3.8c-0.7-1.7-1-3.9-1-6.8v-15.7h3.6v15.7c0,2.4,0.2,4.1,0.7,5.2
			c0.4,1.1,1.2,2,2.3,2.6c1.1,0.6,2.4,0.9,3.9,0.9c2.6,0,4.5-0.6,5.7-1.8c1.1-1.2,1.7-3.5,1.7-6.9V443.4z"/>
		<path class="st0" d="M435.9,470.6v-27.2h9.4c2.1,0,3.7,0.1,4.8,0.4c1.6,0.4,2.9,1,4,1.9c1.4,1.2,2.5,2.8,3.2,4.6
			c0.7,1.9,1.1,4,1.1,6.5c0,2.1-0.2,3.9-0.7,5.5s-1.1,2.9-1.9,4c-0.8,1-1.6,1.9-2.5,2.5c-0.9,0.6-2,1.1-3.2,1.4
			c-1.3,0.3-2.7,0.5-4.4,0.5H435.9z M439.5,467.4h5.8c1.8,0,3.2-0.2,4.2-0.5s1.8-0.8,2.4-1.4c0.9-0.9,1.5-2,2-3.4
			c0.5-1.4,0.7-3.2,0.7-5.2c0-2.8-0.5-5-1.4-6.6c-0.9-1.5-2.1-2.6-3.4-3.1c-1-0.4-2.5-0.6-4.7-0.6h-5.7V467.4z"/>
		<path class="st0" d="M471,470.6v-27.2h19.7v3.2h-16.1v8.3h15v3.2h-15v9.3h16.7v3.2H471z"/>
		<path class="st0" d="M503.8,470.6v-27.2h3.7l14.3,21.4v-21.4h3.5v27.2h-3.7l-14.3-21.4v21.4H503.8z"/>
		<path class="st0" d="M545.8,470.6v-24h-9v-3.2h21.6v3.2h-9v24H545.8z"/>
	</g>
	<polygon points="143.3,485.4 246.9,525.7 202.9,485.4 	"/>
	<polygon points="574.4,485.4 470.8,525.7 514.9,485.4 	"/>
</g>
</svg>
